<svg width="19" height="26" viewBox="0 0 19 26" fill="none" xmlns="http://www.w3.org/2000/svg">
<path fill-rule="evenodd" clip-rule="evenodd" d="M0.0122051 2.72313C0.00479698 3.43772 0.344078 4.12791 0.961592 4.65445L11.0536 13L0.961592 21.3455C0.343266 21.8705 0 22.5583 0 23.2722C0 23.9861 0.343266 24.6739 0.961592 25.1989C1.25732 25.4514 1.61692 25.653 2.01755 25.7909C2.41818 25.9288 2.85109 26 3.28878 26C3.72647 26 4.15938 25.9288 4.56001 25.7909C4.96064 25.653 5.32024 25.4514 5.61597 25.1989L18.034 14.9258C18.6549 14.4029 19 13.7156 19 13.0019C19 12.2881 18.6549 11.6008 18.034 11.078L5.62783 0.801088C5.33211 0.548622 4.97251 0.347034 4.57188 0.209126C4.17125 0.0712147 3.73834 0 3.30065 0C2.86296 0 2.43005 0.0712147 2.02942 0.209126C1.62879 0.347034 1.26919 0.548622 0.973459 0.801088C0.356703 1.32428 0.0173035 2.01139 0.0240726 2.72313" fill="#616161"/>
</svg>
