<svg width="35" height="35" viewBox="0 0 35 35" fill="none" xmlns="http://www.w3.org/2000/svg">
<path fill-rule="evenodd" clip-rule="evenodd" d="M32.5961 27.385H10.9524C10.6372 27.386 10.3249 27.3322 10.0333 27.2268C9.74175 27.1214 9.47662 26.9664 9.25309 26.7707C9.02957 26.575 8.85204 26.3423 8.73065 26.0861C8.60926 25.8299 8.5464 25.5551 8.54565 25.2775V2.10751C8.5464 1.82988 8.60926 1.55511 8.73065 1.29889C8.85204 1.04268 9.02957 0.810059 9.25309 0.614326C9.47662 0.418594 9.74175 0.263592 10.0333 0.158183C10.3249 0.0527747 10.6372 -0.000973088 10.9524 1.33515e-05H32.5961C32.9109 -0.00097309 33.2228 0.05271 33.5141 0.157993C33.8053 0.263276 34.0701 0.418094 34.2934 0.613594C34.5167 0.809094 34.694 1.04144 34.8152 1.29735C34.9365 1.55326 34.9993 1.82771 35 2.10501V25.275C34.9996 25.5526 34.9371 25.8275 34.8161 26.0838C34.695 26.3401 34.5178 26.573 34.2946 26.7689C34.0713 26.9649 33.8064 27.1202 33.5149 27.2259C33.2235 27.3316 32.9113 27.3857 32.5961 27.385ZM24.0533 32.885C24.0536 33.163 23.9917 33.4384 23.871 33.6953C23.7503 33.9523 23.5732 34.1856 23.3499 34.3821C23.1265 34.5786 22.8613 34.7344 22.5695 34.8404C22.2777 34.9464 21.965 35.0007 21.6494 35H2.40391C1.76655 34.998 1.15598 34.7739 0.70557 34.3767C0.255154 33.9795 0.00149571 33.4414 0 32.88V11.83C0 11.2664 0.254165 10.7259 0.706582 10.3274C1.159 9.92889 1.77261 9.70501 2.41242 9.70501C3.05224 9.70501 3.66585 9.92889 4.11826 10.3274C4.57068 10.7259 4.82485 11.2664 4.82485 11.83V29.7925C4.82485 30.0577 4.94445 30.3121 5.15736 30.4996C5.37026 30.6871 5.65901 30.7925 5.9601 30.7925H21.6494C22.2844 30.7912 22.8942 31.0118 23.3448 31.4059C23.7955 31.8001 24.0503 32.3356 24.0533 32.895V32.885ZM18.167 6.32001H25.3929C25.7138 6.31027 26.0337 6.35754 26.3335 6.459C26.6332 6.56046 26.9067 6.71404 27.1377 6.91059C27.3686 7.10713 27.5523 7.34262 27.6777 7.60302C27.8032 7.86341 27.8678 8.14339 27.8678 8.42626C27.8678 8.70913 27.8032 8.9891 27.6777 9.2495C27.5523 9.50989 27.3686 9.74538 27.1377 9.94193C26.9067 10.1385 26.6332 10.2921 26.3335 10.3935C26.0337 10.495 25.7138 10.5422 25.3929 10.5325H18.167C17.846 10.5422 17.5261 10.495 17.2264 10.3935C16.9266 10.2921 16.6531 10.1385 16.4222 9.94193C16.1912 9.74538 16.0075 9.50989 15.8821 9.2495C15.7567 8.9891 15.692 8.70913 15.692 8.42626C15.692 8.14339 15.7567 7.86341 15.8821 7.60302C16.0075 7.34262 16.1912 7.10713 16.4222 6.91059C16.6531 6.71404 16.9266 6.56046 17.2264 6.459C17.5261 6.35754 17.846 6.31027 18.167 6.32001ZM18.167 14.215H25.3929C25.7138 14.2053 26.0337 14.2525 26.3335 14.354C26.6332 14.4555 26.9067 14.609 27.1377 14.8056C27.3686 15.0021 27.5523 15.2376 27.6777 15.498C27.8032 15.7584 27.8678 16.0384 27.8678 16.3213C27.8678 16.6041 27.8032 16.8841 27.6777 17.1445C27.5523 17.4049 27.3686 17.6404 27.1377 17.8369C26.9067 18.0335 26.6332 18.187 26.3335 18.2885C26.0337 18.39 25.7138 18.4372 25.3929 18.4275H18.167C17.846 18.4372 17.5261 18.39 17.2264 18.2885C16.9266 18.187 16.6531 18.0335 16.4222 17.8369C16.1912 17.6404 16.0075 17.4049 15.8821 17.1445C15.7567 16.8841 15.692 16.6041 15.692 16.3213C15.692 16.0384 15.7567 15.7584 15.8821 15.498C16.0075 15.2376 16.1912 15.0021 16.4222 14.8056C16.6531 14.609 16.9266 14.4555 17.2264 14.354C17.5261 14.2525 17.846 14.2053 18.167 14.215Z" fill="#616161"/>
</svg>
