<svg width="1920" height="1080" viewBox="0 0 1920 1080" fill="none" xmlns="http://www.w3.org/2000/svg">
<g clip-path="url(#clip0_206_66)">
<rect width="1920" height="1080" fill="url(#paint0_linear_206_66)"/>
<path d="M1736.46 1043.46C1757.37 1057.35 1771.79 1072.42 1768.65 1077.14C1765.52 1081.86 1751.26 1068.32 1730.34 1054.44C1709.43 1040.55 1678.04 1048.39 1681.17 1043.67C1684.31 1038.95 1715.54 1029.58 1736.46 1043.46Z" fill="url(#paint1_linear_206_66)"/>
<path d="M1817.81 1025.54C1824.93 1049.61 1832.8 1068.51 1835.4 1067.74C1838 1066.97 1830.96 1048.85 1823.85 1024.78C1816.73 1000.7 1821.53 976.537 1818.93 977.306C1816.33 978.075 1810.7 1001.47 1817.81 1025.54Z" fill="url(#paint2_linear_206_66)"/>
<path d="M1792.13 1010.14C1813.04 1024.03 1818.46 1068.7 1815.33 1073.42C1812.2 1078.13 1806.93 1035 1786.02 1021.12C1765.1 1007.23 1748.1 970.027 1751.23 965.311C1754.36 960.595 1771.22 996.258 1792.13 1010.14Z" fill="url(#paint3_linear_206_66)"/>
<path d="M1766.58 1020.75C1789.91 1036.24 1805.93 1066.5 1802.79 1071.21C1799.66 1075.93 1783.89 1047.28 1760.56 1031.79C1738.74 1011.89 1683.93 998.751 1687.06 994.035C1690.19 989.319 1743.24 1005.26 1766.58 1020.75Z" fill="url(#paint4_linear_206_66)"/>
<circle cx="1869.11" cy="1052.19" r="17.2495" transform="rotate(-9.69925 1869.11 1052.19)" fill="url(#paint5_linear_206_66)"/>
<g filter="url(#filter0_d_206_66)">
<path d="M1916.22 1043.11C1860.06 844.448 1833.27 733.851 1661.37 579.729C1822.99 758.73 1849.69 856.286 1896.85 1040.25L1916.22 1043.11Z" fill="#693ED5"/>
<path d="M1651.62 682.764C1677.91 668.546 1688.17 658.049 1690.6 630.393C1651.55 634.477 1644.52 646.979 1651.62 682.764Z" fill="#B63E7B"/>
<path d="M1612.69 618.728C1642.54 620.263 1652.24 624.577 1673.23 594.282C1637.76 577.455 1625.25 584.474 1612.69 618.728Z" fill="#B63E7B"/>
<path d="M1702.34 610.04C1724.66 565.071 1737.29 571.468 1755.83 538.18C1702.25 543.785 1692.6 560.939 1702.34 610.04Z" fill="#B63E7B"/>
<path d="M1724.26 635.779C1757.27 620.314 1749.31 608.134 1762.6 584.276C1724.2 588.293 1717.28 600.588 1724.26 635.779Z" fill="#B63E7B"/>
<path d="M1835.07 674.801C1798.66 676.399 1801.32 690.7 1779.89 707.623C1816.89 718.668 1827.99 709.974 1835.07 674.801Z" fill="#B63E7B"/>
<path d="M1738.67 654.92C1755.77 647.535 1751.9 641.189 1759.06 629.209C1739.38 630.661 1735.65 636.834 1738.67 654.92Z" fill="#B63E7B"/>
<path d="M1771.63 800.741C1789.8 780.723 1795.73 768.657 1791.24 744.153C1760.27 759.237 1757.45 772.071 1771.63 800.741Z" fill="#B63E7B"/>
<path d="M1687.81 690.75C1704.94 681.488 1711.62 674.651 1713.21 656.636C1687.77 659.296 1683.19 667.44 1687.81 690.75Z" fill="#B63E7B"/>
<path d="M1793.67 838.403C1810.79 829.141 1817.47 822.304 1819.06 804.289C1793.62 806.95 1789.04 815.093 1793.67 838.403Z" fill="#B63E7B"/>
<path d="M1706.57 713.323C1723.7 704.061 1730.38 697.224 1731.97 679.209C1706.53 681.869 1701.95 690.013 1706.57 713.323Z" fill="#B63E7B"/>
<path d="M1827.15 790.556C1844.27 781.295 1850.96 774.457 1852.54 756.442C1827.1 759.103 1822.53 767.246 1827.15 790.556Z" fill="#B63E7B"/>
<path d="M1734.15 801.688C1766.28 782.454 1757.33 747.342 1762.11 713.266C1715.56 720.949 1728.19 758.298 1734.15 801.688Z" fill="#B63E7B"/>
<path d="M1838.14 626.099C1801.36 619.018 1784.63 651.156 1758.35 673.371C1798.18 698.679 1813.65 662.416 1838.14 626.099Z" fill="#B63E7B"/>
</g>
<path d="M159.903 944.3C159.82 943.31 159.009 942.531 158.017 942.47C118.045 940.03 96.2135 937.802 67.2966 927.674C66.8771 927.527 66.5014 927.231 66.2823 926.844C47.5973 893.859 198.411 810.076 205.254 800.989C212.138 791.847 217.577 765.513 217.577 765.513C218.502 730.995 176.738 780.427 152.98 770.944C129.223 761.462 138.991 695.586 138.991 695.586C138.991 695.586 159.003 615.015 156.447 584.617C153.891 554.218 141.09 538.516 101.848 572.428C62.6059 606.34 121.987 814.126 56.5962 716.911C33.2833 689.994 9.28544 695.503 4.12429 703.1C-9.21637 722.737 34.5045 818.263 8.97418 878.719C0.0468837 909.874 6.16708 936.357 -7.11526 960.434L-41.2113 1101.06L23.3859 1095.63C23.3859 1095.63 30.3124 1041.47 97.1119 1016.72C163.912 991.974 161.356 961.575 161.356 961.575L159.903 944.3Z" fill="url(#paint6_linear_206_66)"/>
<path d="M-88.4927 1007.19C-65.4306 878.456 -50.8527 842.489 -23.3199 849.237C-22.071 849.543 -21.2189 850.708 -21.1726 851.993C-19.4575 899.574 2.62651 917.857 9.28899 888.479C9.64445 886.912 10.0881 885.258 10.66 883.756C64.5197 742.302 105.774 799.844 95.7886 836.546C78.6541 884.037 42.7729 922.978 45.2644 932.41C47.7559 941.842 92.2618 923.718 91.404 945.45C90.5461 967.182 -63.496 1001.67 -32.2548 1032.84L-88.4927 1007.19Z" fill="#5CABF2"/>
<g filter="url(#filter1_d_206_66)">
<path d="M211.408 895.128C210.795 885.656 198.635 878.732 184.248 879.662C169.862 880.593 158.695 889.026 159.308 898.498C159.921 907.97 172.08 914.894 186.467 913.963C200.854 913.032 212.02 904.599 211.408 895.128Z" fill="#2B267E"/>
</g>
</g>
<defs>
<filter id="filter0_d_206_66" x="1607.69" y="533.18" width="355.943" height="627.172" filterUnits="userSpaceOnUse" color-interpolation-filters="sRGB">
<feFlood flood-opacity="0" result="BackgroundImageFix"/>
<feColorMatrix in="SourceAlpha" type="matrix" values="0 0 0 0 0 0 0 0 0 0 0 0 0 0 0 0 0 0 127 0" result="hardAlpha"/>
<feOffset dx="5" dy="5"/>
<feGaussianBlur stdDeviation="5"/>
<feColorMatrix type="matrix" values="0 0 0 0 0 0 0 0 0 0 0 0 0 0 0 0 0 0 0.25 0"/>
<feBlend mode="normal" in2="BackgroundImageFix" result="effect1_dropShadow_206_66"/>
<feBlend mode="normal" in="SourceGraphic" in2="effect1_dropShadow_206_66" result="shape"/>
</filter>
<filter id="filter1_d_206_66" x="159.284" y="879.579" width="62.1479" height="42.4683" filterUnits="userSpaceOnUse" color-interpolation-filters="sRGB">
<feFlood flood-opacity="0" result="BackgroundImageFix"/>
<feColorMatrix in="SourceAlpha" type="matrix" values="0 0 0 0 0 0 0 0 0 0 0 0 0 0 0 0 0 0 127 0" result="hardAlpha"/>
<feOffset dx="6" dy="4"/>
<feGaussianBlur stdDeviation="2"/>
<feComposite in2="hardAlpha" operator="out"/>
<feColorMatrix type="matrix" values="0 0 0 0 0 0 0 0 0 0 0 0 0 0 0 0 0 0 0.25 0"/>
<feBlend mode="normal" in2="BackgroundImageFix" result="effect1_dropShadow_206_66"/>
<feBlend mode="normal" in="SourceGraphic" in2="effect1_dropShadow_206_66" result="shape"/>
</filter>
<linearGradient id="paint0_linear_206_66" x1="960" y1="0" x2="960" y2="231.5" gradientUnits="userSpaceOnUse">
<stop stop-color="#FAEE6D"/>
<stop offset="1" stop-color="white"/>
</linearGradient>
<linearGradient id="paint1_linear_206_66" x1="1689.44" y1="1031.22" x2="1765.58" y2="1081.77" gradientUnits="userSpaceOnUse">
<stop stop-color="#B63E7B"/>
<stop offset="1" stop-color="#F9ED69"/>
</linearGradient>
<linearGradient id="paint2_linear_206_66" x1="1812.06" y1="979.335" x2="1837.96" y2="1066.98" gradientUnits="userSpaceOnUse">
<stop stop-color="#B63E7B"/>
<stop offset="1" stop-color="#F9ED69"/>
</linearGradient>
<linearGradient id="paint3_linear_206_66" x1="1736.22" y1="987.918" x2="1830.52" y2="1050.52" gradientUnits="userSpaceOnUse">
<stop stop-color="#B63E7B"/>
<stop offset="1" stop-color="#F9ED69"/>
</linearGradient>
<linearGradient id="paint4_linear_206_66" x1="1692.64" y1="985.633" x2="1808.53" y2="1062.57" gradientUnits="userSpaceOnUse">
<stop stop-color="#B63E7B"/>
<stop offset="1" stop-color="#F9ED69"/>
</linearGradient>
<linearGradient id="paint5_linear_206_66" x1="1856.62" y1="1037.62" x2="1878.92" y2="1064.09" gradientUnits="userSpaceOnUse">
<stop stop-color="#B63E7B"/>
<stop offset="1" stop-color="#6E3ED0"/>
</linearGradient>
<linearGradient id="paint6_linear_206_66" x1="184.091" y1="549.297" x2="-52.3673" y2="1104.92" gradientUnits="userSpaceOnUse">
<stop stop-color="#5CABF2"/>
<stop offset="1" stop-color="#693ED5"/>
</linearGradient>
<clipPath id="clip0_206_66">
<rect width="1920" height="1080" fill="white"/>
</clipPath>
</defs>
</svg>
