<svg width="164" height="156" viewBox="0 0 164 156" fill="none" xmlns="http://www.w3.org/2000/svg">
<path d="M84.6825 133.936C84.855 134.112 85.031 134.312 85.2207 134.543C85.4071 134.767 85.59 135.03 85.7832 135.309C85.9729 135.589 86.1627 135.896 86.3559 136.223C86.5388 136.558 86.7182 136.917 86.8872 137.286C87.3254 138.228 87.7394 139.008 88.1845 139.646C88.4019 139.967 88.602 140.264 88.7918 140.522C88.9884 140.791 89.161 141.03 89.3231 141.247C89.4335 141.402 89.5474 141.554 89.6543 141.695C89.7544 141.847 89.8475 141.982 89.9406 142.12C90.1201 142.389 90.2857 142.63 90.441 142.858C90.7515 143.303 91.0171 143.676 91.2621 144.011C91.5071 144.349 91.7451 144.645 92.0108 144.942C92.1488 145.094 92.2903 145.242 92.449 145.401C92.6008 145.56 92.7561 145.729 92.9286 145.901C93.2805 146.264 93.76 146.616 94.3328 146.974C94.4708 147.068 94.6122 147.157 94.7641 147.247C94.9124 147.337 95.0642 147.43 95.2126 147.523C95.53 147.702 95.8509 147.882 96.1821 148.068C96.8446 148.427 97.5553 148.786 98.2177 149.141C98.8836 149.493 99.5357 149.835 100.115 150.145C100.402 150.3 100.688 150.5 100.974 150.728C101.261 150.959 101.52 151.222 101.778 151.501C102.299 152.056 102.782 152.688 103.172 153.278C103.942 154.472 104.428 155.514 104.428 155.514C104.428 155.514 104.494 155.017 104.563 154.22C104.608 153.816 104.632 153.347 104.666 152.819C104.687 152.301 104.694 151.729 104.687 151.135C104.687 150.839 104.68 150.535 104.673 150.224C104.659 149.921 104.632 149.614 104.608 149.307C104.549 148.693 104.476 148.085 104.38 147.495C104.263 146.926 104.128 146.377 103.962 145.887C103.797 145.401 103.611 144.973 103.376 144.635C102.917 143.955 102.489 143.386 102.099 142.886C101.699 142.389 101.319 141.958 100.974 141.564C100.626 141.164 100.319 140.798 100.012 140.429C99.7049 140.06 99.4254 139.684 99.1459 139.267C98.618 138.428 98.1902 138.256 97.5864 137.876C97.2897 137.693 96.9412 137.459 96.503 137.069C96.0683 136.682 95.5163 136.147 94.8331 135.368C94.6744 135.178 94.4846 134.995 94.2672 134.805C94.0533 134.626 93.8222 134.447 93.5737 134.274C93.3219 134.105 93.0631 133.95 92.7905 133.794C92.656 133.719 92.518 133.643 92.3765 133.577C92.2316 133.512 92.0901 133.449 91.9314 133.387C90.7515 132.904 89.4818 132.687 88.388 132.953C86.794 133.332 85.6313 133.38 84.8757 133.332C84.8688 133.332 84.8481 133.322 84.7964 133.308C84.7584 133.287 84.6894 133.267 84.6101 133.242C84.4375 133.184 84.2167 133.094 83.9373 132.977C83.3852 132.746 82.6745 132.404 82.0362 131.945C82.1811 132.2 82.3432 132.487 82.5192 132.804C82.8677 132.966 83.2921 133.166 83.6785 133.37C84.058 133.567 84.4169 133.77 84.648 133.915C84.6618 133.922 84.6756 133.929 84.6825 133.936" fill="#FBC935"/>
<path d="M79.3794 133.936C79.2138 134.112 79.0344 134.312 78.8481 134.543C78.6618 134.767 78.4789 135.03 78.2891 135.309C78.0959 135.589 77.8992 135.896 77.7095 136.223C77.5232 136.558 77.3541 136.917 77.1816 137.286C76.7434 138.228 76.3225 139.008 75.8843 139.646C75.66 139.967 75.4668 140.264 75.2805 140.522C75.0804 140.791 74.9011 141.03 74.7458 141.247C74.6285 141.402 74.5215 141.554 74.418 141.695C74.3144 141.847 74.2213 141.982 74.1316 142.12C73.9419 142.389 73.7763 142.63 73.621 142.858C73.3036 143.303 73.0379 143.676 72.7998 144.011C72.5583 144.349 72.3168 144.645 72.0511 144.942C71.9131 145.094 71.7786 145.242 71.6199 145.401C71.4612 145.56 71.3127 145.729 71.1333 145.901C70.7814 146.264 70.3019 146.616 69.7361 146.974C69.598 147.068 69.4497 147.157 69.3048 147.247C69.1564 147.337 69.0046 147.43 68.8493 147.523C68.5353 147.702 68.2145 147.882 67.8867 148.068C67.2208 148.427 66.517 148.786 65.8511 149.141C65.1783 149.493 64.5366 149.835 63.9535 150.145C63.6602 150.3 63.3669 150.5 63.0875 150.728C62.808 150.959 62.5423 151.222 62.2835 151.501C61.7729 152.056 61.2864 152.688 60.9 153.278C60.1271 154.472 59.6338 155.514 59.6338 155.514C59.6338 155.514 59.5751 155.017 59.4992 154.22C59.4647 153.816 59.4302 153.347 59.3957 152.819C59.3819 152.301 59.3681 151.729 59.375 151.135C59.3819 150.839 59.3888 150.535 59.3957 150.224C59.4095 149.921 59.4302 149.614 59.4578 149.307C59.513 148.693 59.5889 148.085 59.682 147.495C59.7993 146.926 59.9339 146.377 60.1064 145.887C60.272 145.401 60.4549 144.973 60.6929 144.635C61.1518 143.955 61.5728 143.386 61.9696 142.886C62.3698 142.389 62.7493 141.958 63.0875 141.564C63.4359 141.164 63.7429 140.798 64.0604 140.429C64.3605 140.06 64.6469 139.684 64.9195 139.267C65.4508 138.428 65.8786 138.256 66.4755 137.876C66.7826 137.693 67.1208 137.459 67.5589 137.069C68.0006 136.682 68.556 136.147 69.2322 135.368C69.3979 135.178 69.5773 134.995 69.7981 134.805C70.0155 134.626 70.2432 134.447 70.4951 134.274C70.7401 134.105 70.9988 133.95 71.2783 133.794C71.4094 133.719 71.5474 133.643 71.6889 133.577C71.8407 133.512 71.9821 133.449 72.1339 133.387C73.3174 132.904 74.5802 132.687 75.6739 132.953C77.2782 133.332 78.4341 133.38 79.1931 133.332C79.1931 133.332 79.2138 133.322 79.2655 133.308C79.3138 133.287 79.3725 133.267 79.4553 133.242C79.6244 133.184 79.8521 133.094 80.1316 132.977C80.6767 132.746 81.3874 132.404 82.0361 131.945C81.8912 132.2 81.7221 132.487 81.5427 132.804C81.2012 132.966 80.7698 133.166 80.3903 133.37C80.0073 133.567 79.645 133.77 79.4139 133.915C79.4001 133.922 79.3932 133.929 79.3794 133.936" fill="#FBC935"/>
<path d="M52.8541 131.348C52.5919 131.293 52.2987 131.217 51.9916 131.124C51.6845 131.027 51.3499 130.903 51.0014 130.762C50.6564 130.627 50.2838 130.465 49.9043 130.282C49.5282 130.096 49.1452 129.882 48.7553 129.644C47.7617 129.064 46.8853 128.622 46.0883 128.305C45.6846 128.153 45.3258 127.998 44.9877 127.881C44.6427 127.753 44.3355 127.646 44.0561 127.543C43.849 127.467 43.6593 127.398 43.4764 127.322C43.2901 127.256 43.1107 127.187 42.952 127.118C42.6139 126.99 42.3068 126.87 42.0274 126.759C41.4615 126.538 40.9888 126.366 40.561 126.204C40.1297 126.052 39.7295 125.921 39.2914 125.807C39.0843 125.745 38.86 125.7 38.6219 125.648C38.3908 125.59 38.1458 125.534 37.8733 125.479C37.3419 125.365 36.6829 125.324 35.9584 125.321C35.7755 125.321 35.5858 125.324 35.3995 125.328C35.2097 125.328 35.0199 125.334 34.8198 125.341C34.4334 125.352 34.0297 125.372 33.6191 125.403C32.8152 125.452 31.963 125.534 31.1488 125.597C30.3276 125.662 29.5444 125.717 28.8371 125.776C28.4783 125.8 28.1057 125.786 27.7055 125.742C27.3052 125.707 26.905 125.621 26.5013 125.521C25.6905 125.321 24.8555 125.041 24.1241 124.737C22.6819 124.123 21.5813 123.478 21.5813 123.478C21.5813 123.478 21.847 123.951 22.2955 124.696C22.5232 125.058 22.8027 125.497 23.1097 125.973C23.4375 126.435 23.7998 126.942 24.1862 127.467C24.3864 127.725 24.583 127.984 24.7969 128.243C24.9971 128.509 25.2247 128.764 25.4421 129.019C25.8941 129.526 26.3598 130.02 26.8222 130.472C27.2914 130.913 27.7641 131.314 28.2299 131.652C28.6853 131.983 29.1304 132.255 29.5514 132.421C30.4001 132.756 31.1418 133.018 31.8043 133.242C32.4702 133.453 33.0878 133.615 33.6467 133.774C34.1988 133.922 34.7129 134.074 35.2235 134.226C35.7307 134.377 36.2206 134.543 36.7312 134.764C37.749 135.199 38.2321 135.112 38.9981 135.109C39.3776 135.105 39.8365 135.119 40.4644 135.212C41.1061 135.306 41.9342 135.461 43.0383 135.771C43.3039 135.84 43.5903 135.896 43.8905 135.94C44.1975 135.978 44.5219 136.006 44.8462 136.016C45.174 136.023 45.5087 136.02 45.8433 135.999C46.0124 135.992 46.1849 135.982 46.3471 135.961C46.5196 135.94 46.6886 135.913 46.8577 135.885C48.2033 135.647 49.4592 135.123 50.2458 134.284C51.4051 133.056 52.3815 132.369 53.0785 131.99C53.0785 131.99 53.1061 131.98 53.1578 131.966C53.2061 131.955 53.2751 131.938 53.3717 131.917C53.5545 131.879 53.8134 131.828 54.1273 131.779C54.7622 131.672 55.604 131.576 56.4665 131.621C56.1698 131.476 55.8421 131.314 55.4798 131.134C55.0692 131.189 54.5724 131.251 54.1066 131.289C53.6374 131.324 53.1923 131.348 52.8921 131.348C52.8783 131.348 52.868 131.348 52.8541 131.348" fill="#FBC935"/>
<path d="M37.9078 121.684C37.4697 121.463 36.928 121.166 36.3414 120.776C35.7687 120.376 35.158 119.883 34.5266 119.3C33.7607 118.561 33.0396 117.996 32.3702 117.554C31.725 117.092 31.135 116.754 30.6589 116.457C30.4864 116.357 30.3207 116.253 30.1655 116.153C30.0137 116.05 29.8619 115.957 29.7239 115.867C29.441 115.684 29.1821 115.508 28.951 115.36C28.4783 115.053 28.0712 114.801 27.7055 114.576C26.974 114.128 26.3288 113.811 25.3628 113.41C24.4105 113 22.9787 112.762 21.4226 112.568C20.6601 112.465 19.8597 112.372 19.0834 112.289C18.6935 112.248 18.3174 112.203 17.9482 112.168C17.5756 112.13 17.2202 112.082 16.8855 112.041C16.2231 111.954 15.4882 111.699 14.7706 111.371C14.4083 111.199 14.0391 111.019 13.6975 110.816C13.3629 110.616 13.0386 110.402 12.7315 110.191C12.1139 109.774 11.5825 109.367 11.1996 109.063C11.0098 108.908 10.8683 108.777 10.7683 108.687C10.6682 108.597 10.613 108.549 10.613 108.549C10.613 108.549 10.6476 108.67 10.7166 108.894C10.7752 109.122 10.889 109.432 11.0236 109.819C11.1616 110.202 11.3238 110.657 11.5205 111.161C11.6136 111.406 11.7206 111.671 11.8275 111.937C11.9448 112.206 12.0656 112.479 12.1967 112.751C12.4555 113.303 12.7384 113.88 13.0386 114.438C13.1869 114.718 13.3491 114.99 13.5044 115.256C13.6769 115.522 13.8494 115.784 14.0115 116.036C14.3531 116.533 14.7015 117.005 15.0638 117.399C15.4261 117.789 15.7849 118.116 16.1403 118.344C17.5411 119.296 18.6796 119.845 19.6354 120.345C19.8734 120.463 20.1046 120.587 20.3323 120.704C20.5635 120.818 20.7912 120.932 20.9983 121.046C21.4364 121.28 21.8539 121.525 22.2748 121.815C23.1132 122.405 23.579 122.405 24.2898 122.543C25.0074 122.664 25.9493 122.943 27.8573 123.885C28.3162 124.109 28.851 124.313 29.4479 124.448C30.0482 124.586 30.6934 124.675 31.3248 124.696C32.5979 124.744 33.8952 124.486 34.813 123.858C36.1655 122.964 37.2281 122.526 37.9596 122.322C37.9596 122.322 37.9872 122.315 38.0355 122.315C38.0803 122.315 38.1597 122.315 38.246 122.315C38.4254 122.312 38.6772 122.315 38.9774 122.333C39.5846 122.364 40.3747 122.457 41.1683 122.681C40.9302 122.484 40.6611 122.26 40.3816 122.029C39.6053 121.946 38.4943 121.822 37.9457 121.691C37.9319 121.687 37.9216 121.684 37.9078 121.684" fill="#FBC935"/>
<path d="M25.6974 109.239C25.342 108.953 24.9108 108.57 24.4588 108.094C24.345 107.973 24.2311 107.852 24.1138 107.725C24.0034 107.593 23.886 107.448 23.7791 107.307C23.5513 107.017 23.3271 106.714 23.1097 106.382C22.5404 105.558 22.016 104.885 21.4985 104.34C21.2432 104.071 20.9913 103.833 20.7705 103.612C20.5427 103.388 20.3323 103.184 20.146 103.001C19.6147 102.466 19.1799 102.032 18.8004 101.652C18.4416 101.273 18.1414 100.955 17.8412 100.679C17.2581 100.117 16.713 99.7096 15.9367 99.1369C15.5399 98.854 15.0224 98.5883 14.4221 98.3296C14.1288 98.2019 13.8079 98.0742 13.4802 97.95C13.1593 97.8189 12.8177 97.6947 12.4761 97.5739C11.7861 97.3255 11.0684 97.084 10.3681 96.8494C10.0196 96.7356 9.67111 96.6183 9.33644 96.5113C9.01212 96.394 8.6878 96.2801 8.39453 96.1663C7.79419 95.9524 7.17315 95.5763 6.57971 95.1243C6.27954 94.8862 5.98627 94.6516 5.71715 94.3894C5.45148 94.134 5.19964 93.8753 4.96157 93.6131C4.49234 93.0955 4.08863 92.6125 3.80916 92.2502C3.6746 92.0708 3.56078 91.9225 3.49522 91.8155C3.42622 91.712 3.38824 91.6603 3.38824 91.6603C3.38824 91.6603 3.38825 91.781 3.39515 92.0018C3.40895 92.2226 3.4331 92.5297 3.4745 92.9196C3.509 93.3025 3.55728 93.7649 3.62284 94.2652C3.68839 94.7724 3.75394 95.3278 3.8747 95.8868C4.30598 98.1605 5.14444 100.741 6.25886 101.894C6.8109 102.466 7.30769 102.946 7.76657 103.363C7.88042 103.47 8.00117 103.567 8.10123 103.664C8.21854 103.757 8.32548 103.85 8.43589 103.936C8.64635 104.119 8.86029 104.285 9.05695 104.447C9.45373 104.768 9.81599 105.064 10.1645 105.371C10.3404 105.52 10.5026 105.682 10.6682 105.837C10.8441 105.999 11.0098 106.158 11.1754 106.338C11.8344 107.038 12.2588 107.145 12.8798 107.407C13.0385 107.476 13.2041 107.552 13.3905 107.649C13.5837 107.738 13.801 107.856 14.0391 108.007C14.5221 108.297 15.1225 108.718 15.8884 109.353C16.6268 109.95 17.7585 110.481 18.9281 110.771C20.0977 111.044 21.3501 111.061 22.3472 110.664C23.7998 110.088 24.8762 109.891 25.6008 109.836C25.6008 109.836 25.6284 109.839 25.6767 109.843C25.7215 109.86 25.7837 109.867 25.8665 109.884C26.0355 109.915 26.2701 109.967 26.5496 110.047C27.1016 110.191 27.8124 110.426 28.4956 110.781C28.3162 110.561 28.1264 110.305 27.9125 110.026C27.5675 109.915 27.1431 109.781 26.7394 109.643C26.5427 109.57 26.3426 109.505 26.1736 109.443C26.0011 109.374 25.8527 109.312 25.7285 109.25C25.7216 109.25 25.7078 109.243 25.6974 109.239" fill="#FBC935"/>
<path d="M16.851 94.5613C16.7129 94.3888 16.5715 94.1991 16.4197 93.9852C16.2713 93.7644 16.1264 93.5194 15.9849 93.2468C15.6917 92.712 15.3984 92.0876 15.1466 91.3906C14.8602 90.5073 14.5151 89.7828 14.1701 89.179C13.9838 88.872 13.8423 88.5959 13.6836 88.3406C13.5249 88.0853 13.3903 87.8575 13.2696 87.654C13.0833 87.3538 12.9177 87.0778 12.7693 86.8225C12.6865 86.6983 12.6175 86.581 12.552 86.4602C12.4899 86.3464 12.4278 86.236 12.3587 86.129C12.1276 85.6977 11.9205 85.3424 11.7204 85.025C11.5134 84.7075 11.3236 84.4211 11.0959 84.1348C10.9821 83.9899 10.8682 83.8449 10.7509 83.6931C10.6267 83.5344 10.4887 83.3757 10.3472 83.2032C10.054 82.8547 9.65032 82.5062 9.16728 82.1405C8.91887 81.9577 8.6601 81.7714 8.38753 81.5816C8.11496 81.4057 7.84242 81.2124 7.55605 81.0227C6.42438 80.274 5.15809 79.5218 4.14028 78.8663C3.16041 78.2245 2.25299 76.9411 1.62504 75.799C1.03161 74.6605 0.683139 73.6806 0.683139 73.6806C0.683139 73.6806 0.579652 74.1257 0.445093 74.8468C0.382989 75.209 0.300146 75.6369 0.234592 76.1164C0.175938 76.5857 0.120755 77.1066 0.0828022 77.6449C0.0413994 78.19 0.0138009 78.7593 0 79.3217C0 79.8875 0.0345057 80.4431 0.0897094 80.9778C0.141463 81.5161 0.213891 82.0232 0.320848 82.4855C0.369151 82.7098 0.438183 82.9238 0.520988 83.1204C0.593443 83.3171 0.676235 83.5 0.765941 83.6587C1.50429 84.956 2.11847 85.853 2.70846 86.6086C3.2812 87.3745 3.75389 88.0197 4.18517 88.8168C4.6268 89.6034 4.98211 89.7828 5.49274 90.1658C5.75151 90.3452 6.04483 90.5833 6.41055 90.9593C6.76938 91.3423 7.24206 91.8495 7.7941 92.5947C8.05977 92.9467 8.40824 93.3124 8.82572 93.6505C9.24664 93.9852 9.73308 94.2957 10.2437 94.5475C11.2684 95.0547 12.3795 95.3342 13.4042 95.179C14.8878 94.9443 15.9366 94.9857 16.6197 95.0892C16.6266 95.0892 16.6439 95.0962 16.6784 95.1134C16.7267 95.1307 16.7854 95.1548 16.8579 95.1928C17.0028 95.2583 17.1994 95.3481 17.4306 95.4792C17.6686 95.5999 17.9309 95.762 18.2103 95.9414C18.4829 96.1243 18.7761 96.3244 19.0556 96.5625C18.9452 96.3175 18.8141 96.0518 18.6864 95.7517C18.0999 95.4032 17.2753 94.8788 16.8785 94.5821C16.8647 94.5752 16.8579 94.5683 16.851 94.5613" fill="#FBC935"/>
<path d="M12.1897 78.3213C12.0207 77.9556 11.8895 77.476 11.755 76.9274C11.6273 76.3754 11.5134 75.7405 11.472 75.047C11.4479 74.181 11.3168 73.4461 11.1616 72.8113C11.0753 72.5042 10.9959 72.2144 10.9269 71.9452C10.851 71.6865 10.782 71.445 10.7303 71.2277C10.3818 69.958 10.1644 69.1678 9.97806 68.4916C9.87801 68.1569 9.77107 67.8533 9.65031 67.5427C9.52265 67.2219 9.364 66.901 9.19148 66.5249C9.01897 66.142 8.73603 65.7211 8.38755 65.2898C8.21849 65.0656 8.02523 64.8412 7.82167 64.6101C7.62156 64.3858 7.41462 64.1512 7.2076 63.9132C6.3623 62.9782 5.39963 62.0052 4.64748 61.1875C4.28175 60.7803 3.9747 60.2352 3.71938 59.6452C3.46752 59.0552 3.26398 58.41 3.14668 57.8304C2.88791 56.6539 2.80511 55.6844 2.80511 55.6844C2.80511 55.6844 2.60155 56.0639 2.29102 56.6952C1.99776 57.3266 1.58372 58.1927 1.2525 59.1657C1.07309 59.659 0.900505 60.1627 0.745244 60.6803C0.593434 61.1909 0.486551 61.7153 0.389945 62.2156C0.300239 62.7159 0.241588 63.1955 0.220887 63.6371C0.207086 64.0857 0.248425 64.4824 0.32778 64.8136C0.493391 65.4968 0.655619 66.0696 0.828131 66.5802C1.00409 67.0943 1.18005 67.5394 1.33876 67.9534C1.50437 68.364 1.65273 68.7469 1.77349 69.1299C1.9046 69.5094 2.04253 69.8752 2.12879 70.2857C2.3289 71.0931 2.60844 71.338 2.97762 71.7935C3.16048 72.0212 3.36398 72.2937 3.60205 72.7181C3.85046 73.1425 4.12999 73.7084 4.44051 74.5054C4.59922 74.8849 4.82691 75.2955 5.10638 75.6957C5.40655 76.0925 5.77575 76.4823 6.16908 76.8274C6.96953 77.5174 7.93211 78.0211 8.89127 78.1074C10.2852 78.2351 11.2478 78.5042 11.8481 78.7526C11.8481 78.7526 11.8688 78.7664 11.8999 78.7871C11.9275 78.8147 11.9793 78.8527 12.0414 78.8941C12.1552 78.9838 12.3139 79.1183 12.4967 79.2908C12.859 79.6255 13.3111 80.0879 13.6768 80.6399C13.6354 80.3949 13.6112 80.1189 13.5698 79.8221C13.1247 79.3667 12.4968 78.7112 12.2104 78.3454C12.2035 78.3385 12.1966 78.3282 12.1897 78.3213" fill="#FBC935"/>
<path d="M12.2794 61.5535C12.2449 61.1809 12.2311 60.7221 12.2518 60.1873C12.2587 59.9182 12.2932 59.6387 12.3381 59.3454C12.3864 59.0487 12.4416 58.7416 12.5175 58.4242C12.6175 58.0205 12.6659 57.6444 12.7314 57.2959C12.7832 56.9475 12.8176 56.6267 12.8383 56.3265C12.859 56.0194 12.8591 55.7399 12.8591 55.4846C12.8591 55.3535 12.8591 55.2328 12.8591 55.1189C12.8591 55.0016 12.8591 54.8911 12.8591 54.7842C12.8867 54.1769 12.9004 53.6767 12.9073 53.2523C12.9177 52.821 12.9246 52.4691 12.9246 52.1413C12.9246 51.4927 12.8729 50.9579 12.7314 50.1885C12.6072 49.426 12.1483 48.4358 11.5963 47.4007C11.0477 46.3691 10.437 45.2995 9.93673 44.4025C9.82287 44.1817 9.71932 43.9297 9.63651 43.6641C9.56406 43.3984 9.4985 43.1155 9.4571 42.8257C9.37774 42.2461 9.35021 41.6388 9.35711 41.0937C9.36401 40.5347 9.41915 40.0448 9.464 39.6894C9.50541 39.3375 9.55026 39.1167 9.55026 39.1167C9.55026 39.1167 9.27086 39.4134 8.84648 39.9034C8.4152 40.3864 7.87345 41.0937 7.31452 41.87C6.75558 42.6463 6.2312 43.5364 5.81717 44.3748C5.38589 45.2063 5.14091 46.0344 5.1064 46.6589C5.0512 47.9252 5.15819 48.8602 5.22719 49.6641C5.27205 50.0677 5.29612 50.4404 5.31682 50.8061C5.33752 51.1787 5.35134 51.5409 5.33063 51.9343C5.28578 52.7002 5.4721 52.99 5.67911 53.4834C5.90338 53.9802 6.15524 54.691 6.27945 56.2781C6.35535 57.0406 6.69001 57.9826 7.21445 58.7865C7.47321 59.1901 7.80789 59.5627 8.16326 59.8732C8.51863 60.1872 8.91892 60.4322 9.3502 60.584C10.5957 61.0256 11.3686 61.4983 11.8413 61.8606C11.8413 61.8606 11.855 61.8779 11.8826 61.9055C11.8999 61.9365 11.9275 61.9779 11.9723 62.0296C12.0413 62.1435 12.1552 62.3022 12.2794 62.4989C12.5175 62.8853 12.8107 63.4167 12.9936 63.9963C13.0315 63.7686 13.0695 63.5099 13.1178 63.2269C12.9729 62.9716 12.797 62.6576 12.6452 62.3575C12.4968 62.0608 12.3657 61.7744 12.2933 61.5743C12.2864 61.5708 12.2794 61.5604 12.2794 61.5535" fill="#FBC935"/>
<path d="M17.2202 45.4789C17.2823 45.1374 17.3824 44.72 17.5342 44.2473C17.7033 43.778 17.9379 43.257 18.2277 42.7153C18.5934 42.0322 18.8557 41.4318 19.0282 40.8901C19.2145 40.3553 19.3145 39.8827 19.4249 39.51C19.7458 38.4163 19.9424 37.7194 20.0873 37.1329C20.2392 36.5429 20.3047 36.0495 20.3461 35.3318C20.3599 35.1455 20.353 34.9523 20.3323 34.7453C20.3185 34.5314 20.2909 34.3105 20.2495 34.0828C20.1667 33.617 20.0459 33.1134 19.901 32.5993C19.7665 32.0749 19.5871 31.5401 19.4387 31.0398C19.28 30.5222 19.1317 30.0289 18.9937 29.5838C18.8625 29.1422 18.8281 28.6108 18.8557 28.076C18.8867 27.5378 18.9868 26.9961 19.0937 26.5061C19.2076 26.0128 19.3352 25.5746 19.4387 25.2572C19.4871 25.1019 19.5319 24.9743 19.5664 24.8914C19.594 24.8052 19.6147 24.7603 19.6147 24.7603C19.6147 24.7603 19.3076 24.9708 18.835 25.3435C18.3726 25.7161 17.7378 26.2302 17.0822 26.8202C16.4405 27.4239 15.7746 28.1036 15.2329 28.7661C14.7016 29.4457 14.291 30.1082 14.1426 30.6637C13.9839 31.2088 13.8908 31.7091 13.8149 32.1542C13.732 32.5993 13.6837 32.9857 13.6251 33.3514C13.5043 34.076 13.4457 34.7073 13.2249 35.3767C13.0179 36.0564 13.1179 36.3497 13.1973 36.8327C13.2904 37.3192 13.3559 37.9988 13.0903 39.4376C12.973 40.1276 13.0558 41.0316 13.3387 41.87C13.6043 42.705 14.1219 43.4882 14.8085 43.9505C15.8263 44.6302 16.4129 45.2271 16.751 45.6584C16.751 45.6584 16.751 45.6791 16.7648 45.7102C16.7786 45.7412 16.7958 45.786 16.8165 45.8447C16.8579 45.9654 16.9131 46.1276 16.9649 46.3346C17.0753 46.7314 17.2064 47.28 17.2202 47.8562C17.3168 47.6492 17.4169 47.4249 17.5342 47.18C17.3962 46.6452 17.2581 45.8999 17.2202 45.5066C17.2202 45.4997 17.2202 45.4927 17.2202 45.4789" fill="#FBC935"/>
<path d="M26.0804 31.0426C26.208 30.7424 26.3874 30.3767 26.6324 29.9765C26.8739 29.5797 27.1913 29.1519 27.5708 28.7137C27.8123 28.4377 28.0159 28.1686 28.185 27.9167C28.3782 27.6614 28.53 27.4198 28.6646 27.1921C28.9372 26.7367 29.1304 26.333 29.2891 26.0018C29.7756 25.0495 30.1136 24.463 30.3344 23.9455C30.5691 23.421 30.7278 22.9897 30.8969 22.3445C30.9797 22.0236 31.0141 21.6304 31.021 21.1922C31.021 20.9714 31.0142 20.7437 31.0004 20.5021C30.9866 20.2641 30.9727 20.026 30.952 19.781C30.8623 18.7977 30.714 17.7558 30.6001 16.9001C30.5001 16.0514 30.8141 14.9818 31.1625 14.1158C31.3385 13.681 31.5248 13.3153 31.6663 13.0496C31.8112 12.777 31.9043 12.6183 31.9043 12.6183C31.9043 12.6183 31.5939 12.7771 31.1005 13.0255C30.614 13.2843 29.9756 13.6707 29.2959 14.1123C28.9509 14.3297 28.5955 14.5712 28.2643 14.8162C27.9262 15.068 27.6053 15.3234 27.312 15.5856C26.7186 16.1031 26.2287 16.631 26.0148 17.114C25.5732 18.0766 25.3144 18.8046 25.097 19.4498C24.89 20.0916 24.7037 20.6367 24.3932 21.206C24.0723 21.7718 24.1207 22.0582 24.1138 22.5068C24.1069 22.9656 24.0378 23.5763 23.5341 24.8287C23.2994 25.4325 23.1925 26.2537 23.2787 27.0541C23.327 27.4544 23.4237 27.8546 23.5789 28.2272C23.7308 28.5963 23.9446 28.9311 24.2068 29.2071C24.9831 30.0075 25.4041 30.6596 25.6146 31.1116C25.6146 31.1116 25.6146 31.1357 25.6215 31.1633C25.6215 31.1978 25.6284 31.2427 25.6353 31.2945C25.6491 31.4049 25.6698 31.5739 25.6698 31.7602C25.6767 32.1501 25.6767 32.6711 25.5663 33.1956C25.6974 33.0265 25.8423 32.8436 25.9941 32.64C25.9941 32.1363 26.0286 31.429 26.0804 31.0702C26.0804 31.0564 26.0804 31.0461 26.0804 31.0426" fill="#FBC935"/>
<path d="M37.7078 18.5016C37.8734 18.2497 38.1011 17.9427 38.3909 17.6149C38.5324 17.4527 38.691 17.2837 38.8739 17.1043C39.0533 16.9455 39.2501 16.7627 39.4571 16.5971C39.9884 16.1658 40.3817 15.7415 40.6956 15.355C41.0165 14.979 41.2546 14.6374 41.4548 14.3579C41.7549 13.9542 41.993 13.6299 42.2 13.3504C42.4104 13.071 42.5795 12.8363 42.7244 12.619C43.0177 12.1808 43.2178 11.7978 43.4627 11.2216C43.7077 10.6489 43.8215 9.80018 43.8767 8.88587C43.9043 8.42699 43.9182 7.95775 43.9251 7.49887C43.932 7.05034 43.9389 6.61208 43.9527 6.21531C43.97 5.43211 44.3908 4.47642 44.8221 3.73807C45.2499 2.99627 45.6813 2.45114 45.6813 2.45114C45.6813 2.45114 45.3811 2.55812 44.9015 2.73753C44.422 2.91695 43.7836 3.17225 43.1039 3.50002C42.438 3.82089 41.7203 4.18313 41.1131 4.58681C40.5128 4.98704 40.009 5.40798 39.7365 5.8082C39.6054 6.01177 39.4847 6.20159 39.3708 6.38445C39.2639 6.56731 39.1603 6.73975 39.0671 6.90881C38.8877 7.23658 38.7325 7.54024 38.5876 7.81281C38.3081 8.3683 38.0562 8.82375 37.694 9.30333C37.3351 9.78636 37.3351 10.0451 37.2558 10.4522C37.1833 10.8593 37.0177 11.4045 36.3829 12.4775C36.0758 12.9882 35.8516 13.7196 35.8101 14.4614C35.7687 15.2101 35.9102 15.9726 36.3104 16.5488C36.8901 17.3941 37.1488 18.0496 37.2627 18.4982C37.2627 18.5016 37.2627 18.5155 37.2627 18.5465C37.2627 18.5741 37.2558 18.6155 37.2558 18.6741C37.2489 18.7776 37.2351 18.926 37.2075 19.095C37.1627 19.4573 37.0592 19.93 36.8694 20.3923C37.0109 20.2578 37.1764 20.1163 37.3524 19.9541C37.4421 19.4918 37.6008 18.8501 37.7009 18.5258C37.7009 18.5189 37.7009 18.5085 37.7078 18.5016" fill="#FBC935"/>
<path d="M42.1583 100.227C42.0065 100.396 41.8927 100.63 41.7892 100.924C41.6926 101.213 41.627 101.552 41.5718 101.938C41.5132 102.321 41.4753 102.745 41.4546 103.197C41.4408 103.422 41.42 103.653 41.4131 103.894C41.4131 104.132 41.4131 104.37 41.4062 104.608C41.4062 105.581 41.4062 106.623 41.3786 107.558C41.3475 108.504 41.2337 109.394 40.9956 110.067C40.5195 111.412 40.3573 112.109 40.5126 112.999C40.5816 113.448 40.7576 113.931 41.0164 114.576C41.1475 114.9 41.2958 115.277 41.4821 115.687C41.6719 116.091 41.8858 116.563 42.1308 117.091C42.2377 117.333 42.3551 117.564 42.4862 117.785C42.6069 118.006 42.7449 118.223 42.8864 118.433C43.1693 118.858 43.4695 119.265 43.7835 119.638C44.1078 120.007 44.4424 120.359 44.7874 120.676C44.9565 120.838 45.1187 120.994 45.2877 121.138C45.4602 121.29 45.6396 121.418 45.8087 121.549C47.1715 122.608 48.4551 123.16 49.0451 123.257C49.2935 123.574 49.5073 123.909 49.566 124.244C49.6453 124.64 49.9801 125.224 50.4182 125.789C50.8461 126.355 51.3773 126.938 51.8086 127.363C52.3883 127.728 52.9403 128.084 53.4647 128.415C53.2612 127.949 52.6609 126.6 52.2296 126.176C52.033 125.976 51.4809 125.569 50.8909 125.044C50.3043 124.513 49.7005 123.854 49.3935 123.202C50.0524 122.65 50.5459 121.998 50.9047 121.301C51.2635 120.6 51.4878 119.852 51.6224 119.11C51.7535 118.365 51.781 117.626 51.7258 116.94C51.7155 116.764 51.6913 116.601 51.6706 116.432C51.6499 116.267 51.6223 116.108 51.5947 115.946C51.5361 115.628 51.4499 115.332 51.3567 115.059C51.2635 114.78 51.1186 114.452 50.9495 114.062C50.7839 113.665 50.5838 113.231 50.3664 112.761C50.2595 112.53 50.1422 112.296 50.0249 112.044C49.911 111.795 49.7937 111.54 49.6729 111.285C49.4314 110.764 49.1727 110.253 48.9277 109.725C48.6828 109.197 48.4137 108.693 48.1687 108.19C47.9306 107.689 47.6856 107.217 47.4407 106.792C47.2026 106.361 46.9783 105.961 46.7506 105.626C46.5332 105.292 46.2987 105.022 46.102 104.822C45.8639 104.581 45.5085 104.153 45.1083 103.646C44.7012 103.146 44.2872 102.545 43.8697 102.01C43.4695 101.458 43.0968 100.955 42.7932 100.62C42.7173 100.537 42.6449 100.465 42.5724 100.399C42.5138 100.337 42.4517 100.289 42.4034 100.258C42.293 100.182 42.2135 100.168 42.1583 100.227" fill="#FBC935"/>
<path d="M34.7991 90.7387C34.6232 90.8663 34.461 91.063 34.3023 91.3079C34.147 91.5667 34.009 91.8669 33.8744 92.2085C33.7433 92.55 33.6123 92.9399 33.488 93.3504C33.3673 93.7645 33.2293 94.2026 33.1361 94.6546C33.0292 95.1032 32.9153 95.5655 32.8084 96.0209C32.7463 96.2555 32.6979 96.4867 32.6289 96.711C32.5772 96.9387 32.5151 97.163 32.4564 97.3838C32.2253 98.2498 31.9561 99.0467 31.5801 99.6333C31.3868 99.9266 31.2247 100.185 31.0936 100.427C30.959 100.655 30.8555 100.872 30.7658 101.076C30.5933 101.483 30.514 101.848 30.4864 102.276C30.4795 102.483 30.4863 102.711 30.507 102.973C30.5277 103.232 30.5553 103.522 30.614 103.839C30.6795 104.164 30.7451 104.529 30.821 104.943C30.8693 105.154 30.9107 105.381 30.959 105.619C31.0073 105.864 31.059 106.116 31.1212 106.389C31.5455 108.293 32.5427 109.994 33.6019 111.216C34.637 112.454 35.7169 113.217 36.2413 113.417C36.3241 113.583 36.3966 113.766 36.4449 113.938C36.4898 114.111 36.5208 114.28 36.5139 114.442C36.4967 114.832 36.683 115.425 36.9486 116.046C37.0176 116.194 37.0935 116.357 37.1694 116.512C37.2419 116.66 37.335 116.812 37.4144 116.96C37.58 117.257 37.7491 117.537 37.9009 117.775C38.1183 118.006 38.3356 118.23 38.5461 118.451C38.7738 118.668 38.9843 118.879 39.1913 119.082C39.1464 118.851 39.0602 118.396 38.9498 117.937C38.8394 117.468 38.7117 117.002 38.5599 116.757C38.4943 116.643 38.3494 116.464 38.1735 116.243C37.9872 116.022 37.7698 115.753 37.5628 115.439C37.1419 114.828 36.7106 114.11 36.5829 113.434C38.0492 112.672 38.9912 111.385 39.557 110.046C39.8365 109.377 40.0228 108.694 40.109 108.038C40.1366 107.876 40.1573 107.721 40.1711 107.555C40.1849 107.4 40.1987 107.238 40.2056 107.089C40.2125 106.779 40.1987 106.482 40.1642 106.206C40.1366 105.933 40.0779 105.585 39.9951 105.195C39.9192 104.802 39.8365 104.343 39.7295 103.87C39.6709 103.632 39.6191 103.387 39.5639 103.132C39.5363 103.004 39.5017 102.88 39.4776 102.752C39.45 102.621 39.419 102.49 39.3845 102.356C39.2776 101.831 39.1533 101.293 39.0257 100.765C38.9498 100.499 38.9049 100.227 38.8394 99.968C38.7807 99.7058 38.7186 99.4435 38.6496 99.1986C38.5185 98.6914 38.3908 98.2084 38.2666 97.7564C38.1458 97.3113 38.0078 96.9042 37.8664 96.5557C37.7284 96.2107 37.6076 95.9071 37.4489 95.6897C37.3661 95.5551 37.2557 95.3757 37.1419 95.1583C37.0867 95.0548 37.0246 94.941 36.9625 94.8133C36.8969 94.696 36.8348 94.565 36.7727 94.4235C36.5277 93.8818 36.2482 93.2677 35.9895 92.688C35.7514 92.1118 35.503 91.577 35.2994 91.2113C35.189 91.0319 35.0993 90.887 35.0199 90.8042C34.9302 90.7214 34.8613 90.6869 34.7991 90.7387" fill="#FBC935"/>
<path d="M29.9411 80.1083C29.5616 80.2739 29.1614 80.6913 28.7543 81.2709C28.3368 81.8506 27.8779 82.5855 27.4845 83.3687C27.2741 83.762 27.0602 84.1657 26.8497 84.5659C26.6324 84.9627 26.415 85.363 26.208 85.7391C25.7905 86.4912 25.3489 87.1709 24.8624 87.6332C23.8791 88.5682 23.4858 89.0754 23.2408 89.8483C23.1201 90.245 23.0476 90.697 22.9855 91.3215C22.9476 91.9391 22.9199 92.7188 22.8716 93.7711C22.8544 94.0057 22.8613 94.2232 22.8785 94.4509C22.8923 94.6821 22.913 94.9063 22.9406 95.1306C22.9924 95.5757 23.0752 96.0104 23.1787 96.4313C23.4029 97.2663 23.7238 98.0356 24.0516 98.7188C24.4 99.3847 24.7831 99.9471 25.1246 100.382C25.2937 100.599 25.4558 100.785 25.6007 100.93C25.756 101.079 25.8941 101.193 26.0079 101.258C26.0942 101.607 26.1217 101.962 26.0286 102.259C25.9768 102.438 25.963 102.673 25.9699 102.945C25.9768 103.211 26.0079 103.522 26.0804 103.832C26.2011 104.446 26.3874 105.109 26.5634 105.616C26.6393 105.747 26.7118 105.875 26.7877 105.995C26.8601 106.123 26.9464 106.24 27.0188 106.364C27.1775 106.606 27.3259 106.841 27.4708 107.072C27.4984 106.623 27.5674 105.316 27.4086 104.798C27.3258 104.567 27.0395 104.029 26.7739 103.39C26.6393 103.073 26.5289 102.711 26.4392 102.362C26.3598 102.014 26.3011 101.665 26.3149 101.338C27.8572 100.903 29.0096 99.9056 29.8342 98.7809C30.645 97.6492 31.1488 96.3795 31.2661 95.3548C31.3316 94.8373 31.3868 94.0265 31.4006 93.1156C31.4006 93.0018 31.4006 92.881 31.4006 92.7706C31.4075 92.6464 31.4179 92.5291 31.4248 92.4083C31.4317 92.1599 31.4385 91.908 31.4523 91.6596C31.4523 91.4078 31.4558 91.1525 31.4627 90.8937C31.4627 90.6384 31.4627 90.3865 31.4696 90.1277C31.511 89.0961 31.4903 88.0955 31.4903 87.2226C31.4765 86.7913 31.4454 86.3911 31.3937 86.053C31.3592 85.6976 31.3074 85.4043 31.2246 85.1732C31.128 84.8972 31.0073 84.4279 30.89 83.8828C30.7933 83.3342 30.6933 82.7166 30.5829 82.1404C30.5691 82.0611 30.5553 81.9921 30.5415 81.9231C30.5277 81.8541 30.5207 81.7816 30.5069 81.7126C30.4862 81.5711 30.4656 81.4366 30.4449 81.3089C30.4 81.0571 30.3517 80.8294 30.3 80.6396C30.1999 80.267 30.0757 80.0462 29.9411 80.1083" fill="#FBC935"/>
<path d="M27.9331 68.6575C27.5467 68.7334 27.0533 69.0266 26.5357 69.4717C26.0216 69.9271 25.4559 70.5206 24.8693 71.1555C24.7175 71.3176 24.576 71.4832 24.4242 71.6454C24.2759 71.811 24.1379 71.9697 23.9964 72.1353C23.71 72.4562 23.4168 72.7839 23.1269 73.0875C22.8337 73.3843 22.5473 73.6741 22.254 73.9191C22.1126 74.0468 21.9677 74.1606 21.8262 74.2676C21.6813 74.3711 21.5467 74.4642 21.4018 74.547C20.3046 75.1991 19.7871 75.5787 19.3765 76.2411C19.2661 76.4067 19.173 76.5895 19.0695 76.8069C19.0143 76.9139 18.966 77.0243 18.9211 77.1519C18.8797 77.2727 18.8279 77.4004 18.7762 77.5384C18.5829 78.0973 18.3622 78.8012 18.0448 79.7534C17.8067 80.5918 17.7032 81.4509 17.6756 82.2686C17.6687 82.4722 17.6756 82.6758 17.6894 82.869C17.6963 83.0691 17.7169 83.2623 17.7376 83.4521C17.7859 83.835 17.8412 84.2007 17.9171 84.5492C17.9481 84.7217 17.9895 84.8874 18.0309 85.0426C18.0758 85.2083 18.1275 85.3566 18.1758 85.5049C18.269 85.7982 18.3794 86.0673 18.4898 86.2985C18.6934 86.7746 18.9073 87.1127 19.0764 87.2956C19.0557 87.6337 19.0074 87.9581 18.8487 88.2168C18.4968 88.8241 18.4139 90.4146 18.5208 91.4083C18.6865 91.9396 18.8418 92.4537 18.9867 92.9402C19.1212 92.5365 19.5318 91.3323 19.4938 90.8355C19.4386 90.387 18.9936 88.6136 19.3351 87.4371C20.0976 87.3991 20.8118 87.2059 21.4501 86.9265C22.0953 86.6366 22.6853 86.2502 23.2063 85.8224C23.7238 85.3911 24.1724 84.915 24.545 84.4285C24.7244 84.187 24.8831 83.942 25.0211 83.7039C25.1626 83.4624 25.2695 83.2278 25.3765 82.9966C25.5732 82.5343 25.8112 81.8132 26.0493 80.9783C26.1079 80.7713 26.1873 80.5538 26.2563 80.3296C26.315 80.1122 26.3943 79.8845 26.4598 79.6499C26.6047 79.1945 26.7324 78.7183 26.8601 78.256C27.0119 77.7868 27.1499 77.3175 27.2672 76.869C27.388 76.4239 27.4846 75.9926 27.5915 75.5924C27.6985 75.1887 27.7779 74.8161 27.8193 74.4849C27.84 74.3193 27.8537 74.164 27.8572 74.026C27.8572 73.8845 27.8572 73.75 27.8572 73.6396C27.8399 73.3601 27.8572 72.8944 27.8848 72.37C27.9055 72.1043 27.9193 71.8248 27.94 71.5349C27.971 71.2451 28.0021 70.9553 28.0366 70.6689C28.0918 70.1169 28.1194 69.5856 28.1194 69.2199C28.1194 68.8576 28.0711 68.6334 27.9331 68.6575" fill="#FBC935"/>
<path d="M29.0096 57.116C28.6439 57.1022 28.1332 57.2782 27.5329 57.5783C27.2396 57.7302 26.9187 57.9061 26.5806 58.1062C26.2494 58.3064 25.9216 58.5202 25.5732 58.7548C24.1586 59.6588 22.7336 60.7318 21.5329 61.0768C20.346 61.4253 19.7871 61.66 19.2316 62.1706C19.0936 62.2948 18.9591 62.4467 18.8141 62.6192C18.7417 62.7054 18.6658 62.7985 18.5934 62.8986C18.514 62.9952 18.4415 63.1056 18.3621 63.2161C18.0378 63.6887 17.6445 64.2787 17.1236 65.0791C16.6923 65.7933 16.3576 66.5489 16.1333 67.2907C15.9297 68.0291 15.8055 68.7571 15.7676 69.4196C15.7193 70.7445 15.8952 71.7933 16.1195 72.1901C16.0263 72.5006 15.8883 72.7869 15.6848 72.9836C15.4398 73.2251 15.2017 73.6978 14.9947 74.2292C14.8947 74.4983 14.7877 74.7812 14.7221 75.0503C14.6531 75.3263 14.591 75.592 14.5496 75.8231C14.5565 76.3441 14.5703 76.8444 14.5773 77.3206C14.8084 76.9824 15.495 75.9784 15.5881 75.5161C15.6468 75.0917 15.7124 73.3735 16.3334 72.3798C17.7446 72.6489 19.1005 72.3247 20.2701 71.7657C21.4501 71.2068 22.4266 70.4097 22.9855 69.6472C23.0545 69.5506 23.1338 69.4403 23.2201 69.3195C23.3063 69.1987 23.403 69.0641 23.4996 68.9227C23.6962 68.6363 23.9066 68.3086 24.124 67.9601C24.2379 67.7773 24.3517 67.5978 24.469 67.415C24.5829 67.2286 24.7037 67.0389 24.8382 66.8457C25.0832 66.4593 25.3282 66.059 25.5594 65.6691C25.8112 65.2723 26.063 64.8791 26.2804 64.4995C26.5081 64.1166 26.7255 63.7473 26.9187 63.4023C27.3121 62.7157 27.5673 62.1154 27.6674 61.6806C27.7157 61.4288 27.8537 61.0113 28.009 60.5318C28.1711 60.0522 28.3989 59.5139 28.5749 59.0136C28.6232 58.8825 28.6714 58.7584 28.7128 58.6376C28.7611 58.5203 28.8026 58.403 28.8509 58.2926C28.9302 58.0683 28.9992 57.8647 29.0475 57.6922C29.1441 57.3438 29.151 57.1229 29.0096 57.116" fill="#FBC935"/>
<path d="M33.2569 45.6095C32.9084 45.5232 32.3839 45.5991 31.756 45.7751C31.1418 45.958 30.4276 46.234 29.6617 46.5238C29.4754 46.6031 29.2822 46.6722 29.0959 46.7481C28.9027 46.8309 28.7128 46.9068 28.53 46.9861C28.1436 47.131 27.7709 47.2794 27.4018 47.4105C27.0257 47.5451 26.6669 47.6589 26.3219 47.7452C25.9872 47.8314 25.6698 47.8866 25.3834 47.9142C24.2138 47.9867 23.6342 48.0798 22.9924 48.4421C22.675 48.6181 22.361 48.87 21.9366 49.2253C21.7296 49.4047 21.4915 49.6118 21.2259 49.8464C21.0982 49.9671 20.9464 50.0913 20.798 50.2259C20.6531 50.3673 20.4978 50.5157 20.3253 50.6675C20.039 50.947 19.7664 51.2403 19.5146 51.5404C19.3869 51.6888 19.2661 51.8475 19.1523 51.9959C19.0419 52.1546 18.9453 52.3133 18.8418 52.4685C18.6486 52.779 18.483 53.0964 18.3243 53.4104C18.169 53.7209 18.0309 54.0281 17.9309 54.3213C17.7308 54.9182 17.5962 55.4633 17.5272 55.9118C17.4858 56.1327 17.472 56.3397 17.4789 56.5053C17.4789 56.6743 17.4927 56.8124 17.51 56.9228C17.3444 57.1781 17.1304 57.4058 16.8924 57.5403C16.7509 57.6093 16.5853 57.7474 16.4197 57.913C16.3404 57.9958 16.2507 58.0924 16.1679 58.189C16.0851 58.2891 16.0056 58.3926 15.9263 58.4995C15.6089 58.9377 15.3018 59.4415 15.0879 59.8382C14.9326 60.3144 14.8292 60.7767 14.7153 61.2114C14.8671 61.0803 15.1604 60.8284 15.4398 60.5627C15.7124 60.2936 16.0126 60.0073 16.1126 59.8072C16.2161 59.6243 16.3783 59.1447 16.6267 58.6168C16.6853 58.4892 16.7509 58.3512 16.8234 58.2132C16.9062 58.0821 16.9786 57.9509 17.0718 57.8233C17.2443 57.5645 17.4375 57.3264 17.6514 57.1367C18.8486 57.7129 20.1804 57.7405 21.388 57.5059C21.6882 57.4507 21.9815 57.3678 22.2609 57.2816C22.5473 57.1919 22.8234 57.0918 23.0821 56.9814C23.6066 56.7572 24.0654 56.4915 24.4242 56.2155C24.6106 56.0706 24.8244 55.8808 25.0832 55.6634C25.342 55.4392 25.6284 55.1873 25.9217 54.9078C26.0735 54.7698 26.2287 54.6249 26.3874 54.4731C26.4599 54.4041 26.5427 54.3282 26.6186 54.2558C26.7014 54.1799 26.7808 54.1005 26.8601 54.028C27.1982 53.7175 27.5329 53.4001 27.8572 53.0792C28.1781 52.7583 28.5231 52.4409 28.8302 52.1269C29.1442 51.8199 29.4374 51.5128 29.6962 51.2265C30.2413 50.6503 30.6588 50.1327 30.8348 49.7291C30.9452 49.4944 31.1901 49.1253 31.4627 48.6974C31.5972 48.487 31.7491 48.2558 31.8974 48.0316C32.0492 47.8004 32.2183 47.5727 32.3701 47.345C32.6841 46.8999 32.9498 46.4755 33.1292 46.1615C33.3155 45.8475 33.3811 45.6371 33.2569 45.6095" fill="#FBC935"/>
<path d="M40.2471 34.5831C39.9365 34.452 39.4431 34.4554 38.8186 34.5279C38.5115 34.5658 38.1734 34.621 37.8077 34.69C37.4627 34.7625 37.0866 34.8419 36.7106 34.9247C35.9515 35.0938 35.1476 35.2697 34.4127 35.4008C33.6812 35.5319 32.9912 35.6044 32.446 35.5389C31.3385 35.4181 30.7796 35.4008 30.1344 35.6319C29.8032 35.7458 29.4478 35.9183 28.9785 36.1702C28.7543 36.3013 28.4782 36.4428 28.185 36.6222C27.8917 36.7947 27.5674 36.9914 27.1913 37.2191C26.8532 37.4192 26.5358 37.6401 26.2425 37.8678C25.9424 38.0955 25.6767 38.3439 25.4213 38.5957C24.9245 39.0995 24.4829 39.6101 24.1517 40.1207C23.8274 40.6279 23.5721 41.1006 23.3961 41.4939C23.2339 41.8941 23.158 42.2185 23.1408 42.4221C22.9269 42.6153 22.675 42.7843 22.4266 42.8533C22.2679 42.8913 22.0953 42.9775 21.8952 43.0948C21.7089 43.2121 21.4984 43.364 21.3018 43.5296C20.8981 43.8573 20.5048 44.2507 20.2046 44.5646C20.0804 44.7682 19.9562 44.9579 19.8389 45.1512C19.7319 45.3478 19.6215 45.5376 19.5146 45.717C19.6767 45.6377 20.0045 45.472 20.3322 45.296C20.6669 45.1201 20.9913 44.9166 21.1431 44.7648C21.2811 44.613 21.5537 44.2162 21.909 43.7814C22.261 43.3536 22.7336 42.905 23.2132 42.6428C24.1586 43.426 25.3766 43.7297 26.5289 43.7607C27.6848 43.7814 28.8233 43.5433 29.6341 43.1604C29.8412 43.0638 30.0826 42.9258 30.3725 42.7671C30.6588 42.6084 30.9866 42.422 31.3316 42.2185C31.6732 42.0114 32.0354 41.7838 32.4115 41.556C32.7876 41.3214 33.1809 41.0799 33.5605 40.8384C33.9469 40.5969 34.3092 40.3416 34.6783 40.1001C35.0406 39.8585 35.3856 39.617 35.703 39.3858C36.3241 38.9201 36.8347 38.5025 37.1073 38.1472C37.2557 37.9436 37.549 37.6228 37.9078 37.2571C38.2597 36.8982 38.6771 36.4945 39.0532 36.1047C39.1395 36.0115 39.2361 35.9183 39.3258 35.8252C39.4189 35.732 39.5087 35.6492 39.5915 35.556C39.7571 35.3904 39.9054 35.2318 40.0227 35.1007C40.247 34.8212 40.3506 34.628 40.2471 34.5831" fill="#FBC935"/>
<path d="M49.4246 24.3906C48.9071 24.0835 47.5511 24.1663 46.0675 24.2871C44.6012 24.4182 42.983 24.57 41.9997 24.3147C40.9957 24.0525 40.4851 23.9627 39.8433 24.0835C39.1774 24.1939 38.4115 24.5285 36.8416 25.1254C35.4719 25.674 34.3092 26.5193 33.5087 27.3474C32.6979 28.1513 32.2253 28.9242 32.1252 29.2899C31.8802 29.4348 31.6249 29.5452 31.373 29.5659C30.7795 29.6039 29.6755 30.2801 28.9924 30.7528C28.844 30.9115 28.6853 31.0737 28.5438 31.222C28.3989 31.3808 28.2575 31.5325 28.1194 31.6843C28.2885 31.6464 28.6301 31.5498 28.9578 31.4394C29.2994 31.3393 29.641 31.2151 29.8204 31.0978C30.1344 30.8839 31.1418 29.8177 32.1458 29.5141C32.8566 30.3939 33.9055 30.8735 34.9716 31.0909C35.4961 31.1979 36.0377 31.2359 36.5483 31.222C37.0555 31.2013 37.5351 31.1392 37.9526 31.0219C38.377 30.9081 38.9981 30.6769 39.7157 30.3939C40.4437 30.1076 41.2545 29.7694 42.055 29.4175C42.8727 29.0725 43.6593 28.6964 44.3286 28.3411C45.0083 28.003 45.5534 27.6613 45.864 27.3612C46.0468 27.1818 46.3919 26.9299 46.7852 26.6332C47.1786 26.3365 47.6305 26.0018 48.0549 25.6879C48.9071 25.0668 49.6178 24.5044 49.4246 24.3906" fill="#FBC935"/>
<path d="M60.2929 15.2514C59.8478 14.9132 58.5781 14.858 57.1808 14.8028C55.7938 14.7649 54.293 14.7442 53.3994 14.3784C52.5092 14.0231 52.0538 13.8885 51.4362 13.923C50.8255 13.954 50.0389 14.1542 48.5208 14.5371C47.1579 14.858 45.9986 15.5135 45.1119 16.1518C44.2528 16.797 43.6835 17.4319 43.5351 17.7528C43.2833 17.8528 43.0314 17.9218 42.8072 17.9046C42.2586 17.8735 41.12 18.322 40.423 18.6636C40.0883 18.9189 39.771 19.1639 39.4708 19.3951C39.7951 19.364 40.7577 19.2605 41.1131 19.0949C41.4408 18.9465 42.5588 18.1184 43.5179 17.9597C44.0286 18.8637 44.9083 19.4503 45.864 19.7918C46.8059 20.1334 47.8238 20.2265 48.6277 20.1092C49.0348 20.0506 49.6593 19.923 50.3666 19.7505C50.7289 19.6608 51.1049 19.5538 51.4948 19.4503C51.8951 19.3467 52.2987 19.2398 52.7024 19.1225C53.1061 19.0052 53.4994 18.8844 53.8824 18.7533C54.2722 18.6291 54.638 18.5083 54.983 18.3876C55.6627 18.1391 56.2078 17.8735 56.5597 17.6423C56.7495 17.5009 57.1049 17.2904 57.512 17.0593C57.9295 16.8212 58.3918 16.5589 58.8369 16.3174C59.7167 15.8275 60.4551 15.3756 60.2929 15.2514" fill="#FBC935"/>
<path d="M66.7551 0.128732C66.6102 0.0631772 66.4274 0.025191 66.21 0.00793981C65.9892 -0.00931133 65.7442 0.00450643 65.4716 0.0252078C65.199 0.0493594 64.8989 0.0873423 64.5711 0.142546C64.4124 0.170148 64.2468 0.194296 64.0812 0.225348C63.9155 0.25985 63.7534 0.290916 63.5809 0.325418C62.8977 0.470328 62.1767 0.622128 61.5177 0.746336C60.8518 0.863644 60.2066 0.932625 59.7097 0.894672C58.7023 0.804966 58.1916 0.808464 57.5913 1.02928C57.2876 1.14314 56.9737 1.31904 56.5596 1.5709C56.3526 1.70201 56.1215 1.84349 55.8559 2.016C55.604 2.19541 55.3107 2.39207 54.976 2.61633C54.8242 2.71984 54.6759 2.8165 54.5378 2.93036C54.4102 3.04077 54.2721 3.15116 54.1514 3.26502C53.8961 3.49964 53.6512 3.73765 53.4407 3.98952C53.2337 4.24139 53.0335 4.48986 52.861 4.74173C52.7747 4.86939 52.6954 4.99354 52.6126 5.11775C52.5401 5.23851 52.4677 5.36964 52.4022 5.4904C51.8674 6.46337 51.6776 7.31898 51.6983 7.6847C51.5086 7.88826 51.3084 8.06426 51.0842 8.15052C50.8185 8.25747 50.4631 8.54389 50.1319 8.88546C49.8007 9.23738 49.4729 9.63757 49.2348 9.96534C49.0726 10.3656 48.9071 10.7486 48.7484 11.1108C49.0451 10.9211 49.8973 10.3587 50.1319 10.0378C50.2389 9.89287 50.4424 9.49607 50.7219 9.06134C51.0013 8.63351 51.3774 8.17121 51.7811 7.88829C52.2745 8.20572 52.7989 8.4024 53.3372 8.51281C53.8823 8.63011 54.4378 8.65429 54.976 8.62324C55.5143 8.59219 56.0352 8.49557 56.501 8.35756C56.6183 8.32651 56.7356 8.29545 56.846 8.25749C56.9599 8.21609 57.0703 8.17811 57.1807 8.14015C57.3843 8.05045 57.5809 7.96072 57.7603 7.86067C57.9363 7.76061 58.1571 7.62608 58.3986 7.46392C58.6436 7.30866 58.9231 7.12233 59.2198 6.92567C59.3613 6.82216 59.513 6.72214 59.6683 6.61518C59.827 6.50822 59.9823 6.39783 60.1479 6.28743C60.4757 6.06661 60.7862 5.83201 61.1243 5.60774C61.459 5.38003 61.7729 5.14534 62.0835 4.92797C62.4009 4.70026 62.6942 4.48983 62.9529 4.27937C63.222 4.06545 63.467 3.87571 63.6602 3.69285C63.8604 3.50998 64.0191 3.33058 64.1261 3.17876C64.2606 3.0028 64.509 2.71989 64.7954 2.40937C65.0921 2.0954 65.4509 1.75034 65.758 1.42257C66.0858 1.09825 66.3859 0.798079 66.5688 0.563464C66.6171 0.50826 66.6585 0.453067 66.693 0.401313C66.7275 0.34956 66.7551 0.31157 66.7689 0.277068C66.8034 0.197713 66.8034 0.149433 66.7551 0.128732" fill="#FBC935"/>
<path d="M110.597 131.348C110.856 131.293 111.149 131.217 111.456 131.124C111.77 131.027 112.102 130.903 112.453 130.762C112.802 130.627 113.171 130.465 113.544 130.282C113.92 130.096 114.31 129.882 114.696 129.644C115.69 129.064 116.559 128.622 117.36 128.305C117.763 128.153 118.126 127.998 118.464 127.881C118.809 127.753 119.116 127.646 119.395 127.543C119.599 127.467 119.789 127.398 119.982 127.322C120.165 127.256 120.334 127.187 120.499 127.118C120.834 126.99 121.141 126.87 121.421 126.759C121.983 126.538 122.456 126.366 122.883 126.204C123.325 126.052 123.722 125.921 124.153 125.807C124.371 125.745 124.588 125.7 124.826 125.648C125.064 125.59 125.306 125.534 125.578 125.479C126.109 125.365 126.765 125.324 127.493 125.321C127.679 125.321 127.866 125.324 128.055 125.328C128.238 125.328 128.438 125.334 128.628 125.341C129.018 125.352 129.418 125.372 129.829 125.403C130.636 125.452 131.488 125.534 132.299 125.597C133.117 125.662 133.91 125.717 134.614 125.776C134.966 125.8 135.353 125.786 135.746 125.742C136.143 125.707 136.543 125.621 136.957 125.521C137.768 125.321 138.599 125.041 139.324 124.737C140.77 124.123 141.874 123.478 141.874 123.478C141.874 123.478 141.608 123.951 141.149 124.696C140.928 125.058 140.645 125.497 140.338 125.973C140.01 126.435 139.659 126.942 139.262 127.467C139.072 127.725 138.865 127.984 138.655 128.243C138.448 128.509 138.223 128.764 138.006 129.019C137.554 129.526 137.098 130.02 136.633 130.472C136.157 130.913 135.684 131.314 135.221 131.652C134.763 131.983 134.321 132.255 133.897 132.421C133.051 132.756 132.313 133.018 131.647 133.242C130.974 133.453 130.367 133.615 129.801 133.774C129.242 133.922 128.739 134.074 128.231 134.226C127.721 134.377 127.227 134.543 126.717 134.764C125.706 135.199 125.223 135.112 124.453 135.109C124.067 135.105 123.611 135.119 122.977 135.212C122.342 135.306 121.517 135.461 120.413 135.771C120.151 135.84 119.865 135.896 119.561 135.94C119.25 135.978 118.93 136.006 118.602 136.016C118.281 136.023 117.939 136.02 117.605 135.999C117.443 135.992 117.267 135.982 117.101 135.961C116.932 135.94 116.759 135.913 116.587 135.885C115.238 135.647 113.996 135.123 113.206 134.284C112.05 133.056 111.07 132.369 110.373 131.99C110.373 131.99 110.345 131.98 110.29 131.966C110.242 131.955 110.173 131.938 110.08 131.917C109.893 131.879 109.635 131.828 109.328 131.779C108.693 131.672 107.854 131.576 106.978 131.621C107.282 131.476 107.609 131.314 107.968 131.134C108.379 131.189 108.879 131.251 109.348 131.289C109.811 131.324 110.256 131.348 110.556 131.348C110.57 131.348 110.583 131.348 110.597 131.348" fill="#FBC935"/>
<path d="M125.544 121.684C125.989 121.463 126.52 121.166 127.107 120.776C127.679 120.376 128.3 119.883 128.921 119.3C129.684 118.561 130.408 117.996 131.078 117.554C131.726 117.092 132.32 116.754 132.793 116.457C132.962 116.357 133.124 116.253 133.282 116.153C133.441 116.05 133.59 115.957 133.728 115.867C134.007 115.684 134.266 115.508 134.497 115.36C134.973 115.053 135.38 114.801 135.746 114.576C136.477 114.128 137.123 113.811 138.089 113.41C139.034 113 140.476 112.762 142.025 112.568C142.788 112.465 143.588 112.372 144.365 112.289C144.754 112.248 145.131 112.203 145.507 112.168C145.876 112.13 146.228 112.082 146.566 112.041C147.232 111.954 147.963 111.699 148.688 111.371C149.043 111.199 149.402 111.019 149.754 110.816C150.092 110.616 150.413 110.402 150.72 110.191C151.341 109.774 151.865 109.367 152.248 109.063C152.442 108.908 152.583 108.777 152.687 108.687C152.787 108.597 152.835 108.549 152.835 108.549C152.835 108.549 152.8 108.67 152.742 108.894C152.673 109.122 152.562 109.432 152.435 109.819C152.297 110.202 152.124 110.657 151.934 111.161C151.838 111.406 151.731 111.671 151.624 111.937C151.51 112.206 151.382 112.479 151.251 112.751C150.993 113.303 150.713 113.88 150.406 114.438C150.261 114.718 150.106 114.99 149.933 115.256C149.778 115.522 149.609 115.784 149.43 116.036C149.095 116.533 148.75 117.005 148.391 117.399C148.025 117.789 147.663 118.116 147.308 118.344C145.907 119.296 144.775 119.845 143.813 120.345C143.574 120.463 143.343 120.587 143.119 120.704C142.884 120.818 142.667 120.932 142.446 121.046C142.012 121.28 141.594 121.525 141.17 121.815C140.331 122.405 139.862 122.405 139.158 122.543C138.441 122.664 137.502 122.943 135.591 123.885C135.139 124.109 134.607 124.313 134 124.448C133.396 124.586 132.765 124.675 132.123 124.696C130.853 124.744 129.563 124.486 128.642 123.858C127.289 122.964 126.223 122.526 125.495 122.322C125.495 122.322 125.464 122.315 125.412 122.315C125.364 122.315 125.299 122.315 125.202 122.315C125.026 122.312 124.771 122.315 124.471 122.333C123.874 122.364 123.073 122.457 122.29 122.681C122.521 122.484 122.787 122.26 123.073 122.029C123.846 121.946 124.957 121.822 125.502 121.691C125.516 121.687 125.53 121.684 125.544 121.684" fill="#FBC935"/>
<path d="M137.754 109.239C138.116 108.953 138.541 108.57 138.986 108.094C139.106 107.973 139.22 107.852 139.338 107.725C139.445 107.593 139.558 107.448 139.672 107.307C139.897 107.017 140.121 106.714 140.338 106.382C140.904 105.558 141.435 104.885 141.949 104.34C142.201 104.071 142.453 103.833 142.688 103.612C142.912 103.388 143.119 103.184 143.299 103.001C143.84 102.466 144.271 102.032 144.644 101.652C145.01 101.273 145.313 100.955 145.607 100.679C146.186 100.117 146.742 99.7096 147.518 99.1369C147.908 98.854 148.429 98.5883 149.029 98.3296C149.323 98.2019 149.64 98.0742 149.968 97.95C150.292 97.8189 150.63 97.6947 150.972 97.5739C151.662 97.3255 152.383 97.084 153.08 96.8494C153.435 96.7356 153.787 96.6183 154.111 96.5113C154.439 96.394 154.76 96.2801 155.06 96.1663C155.657 95.9524 156.275 95.5763 156.868 95.1243C157.168 94.8862 157.469 94.6516 157.727 94.3894C158 94.134 158.252 93.8753 158.486 93.6131C158.959 93.0955 159.352 92.6125 159.642 92.2502C159.777 92.0708 159.884 91.9225 159.956 91.8155C160.029 91.712 160.063 91.6603 160.063 91.6603C160.063 91.6603 160.063 91.781 160.056 92.0018C160.042 92.2226 160.015 92.5297 159.98 92.9196C159.949 93.3025 159.891 93.7649 159.829 94.2652C159.77 94.7724 159.694 95.3278 159.57 95.8868C159.142 98.1605 158.304 100.741 157.196 101.894C156.637 102.466 156.137 102.946 155.681 103.363C155.571 103.47 155.457 103.567 155.35 103.664C155.236 103.757 155.122 103.85 155.012 103.936C154.798 104.119 154.591 104.285 154.391 104.447C153.994 104.768 153.635 105.064 153.287 105.371C153.114 105.52 152.952 105.682 152.783 105.837C152.611 105.999 152.442 106.158 152.276 106.338C151.61 107.038 151.199 107.145 150.572 107.407C150.413 107.476 150.247 107.552 150.057 107.649C149.868 107.738 149.647 107.856 149.409 108.007C148.922 108.297 148.329 108.718 147.566 109.353C146.825 109.95 145.696 110.481 144.53 110.771C143.35 111.044 142.101 111.061 141.104 110.664C139.658 110.088 138.572 109.891 137.847 109.836C137.84 109.836 137.823 109.839 137.775 109.843C137.733 109.86 137.664 109.867 137.581 109.884C137.409 109.915 137.181 109.967 136.898 110.047C136.353 110.191 135.632 110.426 134.956 110.781C135.125 110.561 135.325 110.305 135.532 110.026C135.891 109.915 136.312 109.781 136.709 109.643C136.905 109.57 137.105 109.505 137.274 109.443C137.443 109.374 137.595 109.312 137.719 109.25C137.726 109.25 137.74 109.243 137.754 109.239" fill="#FBC935"/>
<path d="M146.604 94.5613C146.735 94.3888 146.887 94.1991 147.028 93.9852C147.177 93.7644 147.321 93.5194 147.47 93.2468C147.756 92.712 148.05 92.0876 148.305 91.3906C148.591 90.5073 148.94 89.7828 149.288 89.179C149.468 88.872 149.616 88.5959 149.764 88.3406C149.92 88.0853 150.058 87.8575 150.182 87.654C150.365 87.3538 150.527 87.0778 150.679 86.8225C150.761 86.6983 150.83 86.581 150.899 86.4602C150.965 86.3464 151.027 86.236 151.089 86.129C151.32 85.6977 151.531 85.3424 151.731 85.025C151.934 84.7075 152.135 84.4211 152.355 84.1348C152.469 83.9899 152.583 83.8449 152.7 83.6931C152.821 83.5344 152.959 83.3757 153.101 83.2032C153.394 82.8547 153.804 82.5062 154.291 82.1405C154.526 81.9577 154.795 81.7714 155.06 81.5816C155.343 81.4057 155.606 81.2124 155.895 81.0227C157.027 80.274 158.286 79.5218 159.304 78.8663C160.287 78.2245 161.195 76.9411 161.826 75.799C162.416 74.6605 162.772 73.6806 162.772 73.6806C162.772 73.6806 162.875 74.1257 163.003 74.8468C163.072 75.209 163.148 75.6369 163.224 76.1164C163.279 76.5857 163.324 77.1066 163.369 77.6449C163.41 78.19 163.441 78.7593 163.448 79.3217C163.455 79.8875 163.41 80.4431 163.369 80.9778C163.31 81.5161 163.237 82.0232 163.134 82.4855C163.079 82.7098 163.01 82.9238 162.937 83.1204C162.854 83.3171 162.772 83.5 162.685 83.6587C161.947 84.956 161.333 85.853 160.746 86.6086C160.167 87.3745 159.701 88.0197 159.27 88.8168C158.828 89.6034 158.466 89.7828 157.948 90.1658C157.693 90.3452 157.4 90.5833 157.041 90.9593C156.675 91.3423 156.216 91.8495 155.657 92.5947C155.388 92.9467 155.04 93.3124 154.626 93.6505C154.201 93.9852 153.715 94.2957 153.208 94.5475C152.19 95.0547 151.069 95.3342 150.047 95.179C148.564 94.9443 147.518 94.9857 146.832 95.0892C146.832 95.0892 146.804 95.0962 146.766 95.1134C146.721 95.1307 146.666 95.1548 146.594 95.1928C146.449 95.2583 146.248 95.3481 146.021 95.4792C145.779 95.5999 145.52 95.762 145.248 95.9414C144.968 96.1243 144.675 96.3244 144.399 96.5625C144.51 96.3175 144.63 96.0518 144.761 95.7517C145.348 95.4032 146.173 94.8788 146.58 94.5821C146.587 94.5752 146.593 94.5683 146.604 94.5613" fill="#FBC935"/>
<path d="M151.258 78.3213C151.431 77.9556 151.565 77.476 151.696 76.9274C151.817 76.3754 151.941 75.7405 151.976 75.047C152.01 74.181 152.134 73.4461 152.297 72.8113C152.376 72.5042 152.455 72.2144 152.521 71.9452C152.597 71.6865 152.662 71.445 152.728 71.2277C153.069 69.958 153.287 69.1678 153.47 68.4916C153.566 68.1569 153.673 67.8533 153.804 67.5427C153.929 67.2219 154.091 66.901 154.253 66.5249C154.439 66.142 154.712 65.7211 155.06 65.2898C155.236 65.0656 155.423 64.8412 155.619 64.6101C155.83 64.3858 156.037 64.1512 156.247 63.9132C157.089 62.9782 158.052 62.0052 158.8 61.1875C159.169 60.7803 159.476 60.2352 159.728 59.6452C159.98 59.0552 160.187 58.41 160.301 57.8304C160.567 56.6539 160.643 55.6844 160.643 55.6844C160.643 55.6844 160.846 56.0639 161.146 56.6952C161.447 57.3266 161.864 58.1927 162.206 59.1657C162.385 59.659 162.554 60.1627 162.703 60.6803C162.861 61.1909 162.965 61.7153 163.058 62.2156C163.148 62.7159 163.217 63.1955 163.23 63.6371C163.244 64.0857 163.21 64.4824 163.13 64.8136C162.958 65.4968 162.792 66.0696 162.63 66.5802C162.444 67.0943 162.271 67.5394 162.113 67.9534C161.954 68.364 161.805 68.7469 161.674 69.1299C161.547 69.5094 161.412 69.8752 161.319 70.2857C161.122 71.0931 160.839 71.338 160.474 71.7935C160.287 72.0212 160.084 72.2937 159.842 72.7181C159.597 73.1425 159.318 73.7084 159.004 74.5054C158.856 74.8849 158.631 75.2955 158.345 75.6957C158.038 76.0925 157.672 76.4823 157.279 76.8274C156.482 77.5174 155.523 78.0211 154.556 78.1074C153.163 78.2351 152.203 78.5042 151.603 78.7526C151.603 78.7526 151.579 78.7664 151.551 78.7871C151.517 78.8147 151.472 78.8527 151.417 78.8941C151.3 78.9838 151.137 79.1183 150.958 79.2908C150.592 79.6255 150.147 80.0879 149.778 80.6399C149.812 80.3949 149.847 80.1189 149.881 79.8221C150.326 79.3667 150.951 78.7112 151.237 78.3454C151.244 78.3385 151.251 78.3282 151.258 78.3213" fill="#FBC935"/>
<path d="M151.179 61.5535C151.203 61.1809 151.224 60.7221 151.203 60.1873C151.199 59.9182 151.165 59.6387 151.11 59.3454C151.068 59.0487 151.006 58.7416 150.93 58.4242C150.83 58.0205 150.779 57.6444 150.72 57.2959C150.665 56.9475 150.63 56.6267 150.613 56.3265C150.599 56.0194 150.592 55.7399 150.592 55.4846C150.599 55.3535 150.599 55.2328 150.599 55.1189C150.599 55.0016 150.592 54.8911 150.592 54.7842C150.572 54.1769 150.558 53.6767 150.544 53.2523C150.537 52.821 150.527 52.4691 150.52 52.1413C150.52 51.4927 150.578 50.9579 150.72 50.1885C150.844 49.426 151.3 48.4358 151.858 47.4007C152.397 46.3691 153.021 45.2995 153.504 44.4025C153.628 44.1817 153.739 43.9297 153.811 43.6641C153.887 43.3984 153.946 43.1155 153.987 42.8257C154.074 42.2461 154.098 41.6388 154.091 41.0937C154.084 40.5347 154.032 40.0448 153.98 39.6894C153.939 39.3375 153.901 39.1167 153.901 39.1167C153.901 39.1167 154.18 39.4134 154.605 39.9034C155.033 40.3864 155.571 41.0937 156.123 41.87C156.699 42.6463 157.227 43.5364 157.641 44.3748C158.065 45.2063 158.317 46.0344 158.345 46.6589C158.397 47.9252 158.286 48.8602 158.221 49.6641C158.179 50.0677 158.152 50.4404 158.131 50.8061C158.103 51.1787 158.1 51.5409 158.117 51.9343C158.165 52.7002 157.972 52.99 157.772 53.4834C157.551 53.9802 157.293 54.691 157.175 56.2781C157.096 57.0406 156.761 57.9826 156.24 58.7865C155.982 59.1901 155.65 59.5627 155.291 59.8732C154.933 60.1872 154.526 60.4322 154.105 60.584C152.856 61.0256 152.076 61.4983 151.61 61.8606C151.61 61.8606 151.593 61.8779 151.572 61.9055C151.551 61.9365 151.517 61.9779 151.479 62.0296C151.41 62.1435 151.293 62.3022 151.179 62.4989C150.93 62.8853 150.644 63.4167 150.454 63.9963C150.42 63.7686 150.378 63.5099 150.333 63.2269C150.475 62.9716 150.644 62.6576 150.799 62.3575C150.958 62.0608 151.082 61.7744 151.165 61.5743C151.165 61.5708 151.172 61.5604 151.179 61.5535" fill="#FBC935"/>
<path d="M146.228 45.4789C146.173 45.1374 146.072 44.72 145.907 44.2473C145.745 43.778 145.514 43.257 145.22 42.7153C144.858 42.0322 144.596 41.4318 144.423 40.8901C144.237 40.3553 144.144 39.8827 144.023 39.51C143.706 38.4163 143.505 37.7194 143.364 37.1329C143.212 36.5429 143.147 36.0495 143.105 35.3318C143.091 35.1455 143.098 34.9523 143.119 34.7453C143.14 34.5314 143.164 34.3105 143.205 34.0828C143.288 33.617 143.405 33.1134 143.547 32.5993C143.692 32.0749 143.854 31.5401 144.013 31.0398C144.168 30.5222 144.316 30.0289 144.454 29.5838C144.585 29.1422 144.616 28.6108 144.596 28.076C144.565 27.5378 144.468 26.9961 144.351 26.5061C144.244 26.0128 144.113 25.5746 144.013 25.2572C143.964 25.1019 143.916 24.9743 143.888 24.8914C143.847 24.8052 143.833 24.7603 143.833 24.7603C143.833 24.7603 144.151 24.9708 144.61 25.3435C145.082 25.7161 145.71 26.2302 146.373 26.8202C147.007 27.4239 147.677 28.1036 148.222 28.7661C148.75 29.4457 149.157 30.1082 149.309 30.6637C149.467 31.2088 149.561 31.7091 149.633 32.1542C149.716 32.5993 149.771 32.9857 149.826 33.3514C149.933 34.076 150.006 34.7073 150.22 35.3767C150.434 36.0564 150.333 36.3497 150.254 36.8327C150.168 37.3192 150.099 37.9988 150.358 39.4376C150.475 40.1276 150.392 41.0316 150.113 41.87C149.847 42.705 149.333 43.4882 148.636 43.9505C147.629 44.6302 147.035 45.2271 146.707 45.6584C146.707 45.6584 146.7 45.6791 146.687 45.7102C146.673 45.7412 146.652 45.786 146.631 45.8447C146.593 45.9654 146.535 46.1276 146.48 46.3346C146.373 46.7314 146.242 47.28 146.228 47.8562C146.135 47.6492 146.038 47.4249 145.921 47.18C146.052 46.6452 146.186 45.8999 146.228 45.5066C146.228 45.4997 146.228 45.4927 146.228 45.4789" fill="#FBC935"/>
<path d="M137.371 31.0426C137.243 30.7424 137.064 30.3767 136.819 29.9765C136.571 29.5797 136.253 29.1519 135.877 28.7137C135.639 28.4377 135.432 28.1686 135.26 27.9167C135.08 27.6614 134.915 27.4198 134.783 27.1921C134.521 26.7367 134.328 26.333 134.162 26.0018C133.666 25.0495 133.345 24.463 133.11 23.9455C132.879 23.421 132.724 22.9897 132.551 22.3445C132.472 22.0236 132.437 21.6304 132.437 21.1922C132.437 20.9714 132.437 20.7437 132.458 20.5021C132.465 20.2641 132.486 20.026 132.506 19.781C132.586 18.7977 132.737 17.7558 132.844 16.9001C132.955 16.0514 132.634 14.9818 132.285 14.1158C132.113 13.681 131.927 13.3153 131.789 13.0496C131.647 12.777 131.547 12.6183 131.547 12.6183C131.547 12.6183 131.865 12.7771 132.348 13.0255C132.831 13.2843 133.476 13.6707 134.162 14.1123C134.497 14.3297 134.852 14.5712 135.187 14.8162C135.522 15.068 135.846 15.3234 136.143 15.5856C136.736 16.1031 137.223 16.631 137.437 17.114C137.882 18.0766 138.134 18.8046 138.354 19.4498C138.558 20.0916 138.741 20.6367 139.055 21.206C139.379 21.7718 139.331 22.0582 139.338 22.5068C139.345 22.9656 139.417 23.5763 139.917 24.8287C140.148 25.4325 140.259 26.2537 140.169 27.0541C140.121 27.4544 140.024 27.8546 139.876 28.2272C139.717 28.5963 139.514 28.9311 139.248 29.2071C138.461 30.0075 138.054 30.6596 137.84 31.1116C137.84 31.1116 137.833 31.1357 137.833 31.1633C137.83 31.1978 137.823 31.2427 137.816 31.2945C137.802 31.4049 137.782 31.5739 137.782 31.7602C137.775 32.1501 137.775 32.6711 137.889 33.1956C137.761 33.0265 137.609 32.8436 137.461 32.64C137.461 32.1363 137.416 31.429 137.378 31.0702C137.378 31.0564 137.371 31.0461 137.371 31.0426" fill="#FBC935"/>
<path d="M125.744 18.5016C125.578 18.2497 125.343 17.9427 125.057 17.6149C124.916 17.4527 124.757 17.2837 124.581 17.1043C124.398 16.9455 124.205 16.7627 123.994 16.5971C123.46 16.1658 123.073 15.7415 122.759 15.355C122.438 14.979 122.197 14.6374 121.997 14.3579C121.704 13.9542 121.455 13.6299 121.251 13.3504C121.038 13.071 120.868 12.8363 120.727 12.619C120.434 12.1808 120.234 11.7978 119.989 11.2216C119.74 10.6489 119.633 9.80018 119.578 8.88587C119.544 8.42699 119.53 7.95775 119.523 7.49887C119.516 7.05034 119.509 6.61208 119.502 6.21531C119.482 5.43211 119.068 4.47642 118.629 3.73807C118.198 2.99627 117.777 2.45114 117.777 2.45114C117.777 2.45114 118.077 2.55812 118.55 2.73753C119.026 2.91695 119.668 3.17225 120.341 3.50002C121.017 3.82089 121.731 4.18313 122.335 4.58681C122.935 4.98704 123.442 5.40798 123.715 5.8082C123.853 6.01177 123.974 6.20159 124.081 6.38445C124.184 6.56731 124.288 6.73975 124.384 6.90881C124.56 7.23658 124.719 7.54024 124.86 7.81281C125.14 8.3683 125.392 8.82375 125.758 9.30333C126.116 9.78636 126.116 10.0451 126.196 10.4522C126.268 10.8593 126.43 11.4045 127.065 12.4775C127.372 12.9882 127.6 13.7196 127.645 14.4614C127.679 15.2101 127.541 15.9726 127.141 16.5488C126.568 17.3941 126.303 18.0496 126.185 18.4982C126.185 18.5016 126.185 18.5155 126.185 18.5465C126.185 18.5741 126.189 18.6155 126.196 18.6741C126.196 18.7776 126.21 18.926 126.237 19.095C126.296 19.4573 126.389 19.93 126.589 20.3923C126.437 20.2578 126.275 20.1163 126.089 19.9541C126.009 19.4918 125.858 18.8501 125.751 18.5258C125.751 18.5189 125.751 18.5085 125.744 18.5016" fill="#FBC935"/>
<path d="M121.293 100.227C121.445 100.396 121.565 100.63 121.659 100.924C121.755 101.213 121.824 101.552 121.876 101.938C121.931 102.321 121.976 102.745 122.004 103.197C122.017 103.422 122.021 103.653 122.035 103.894C122.035 104.132 122.035 104.37 122.035 104.608C122.048 105.581 122.048 106.623 122.069 107.558C122.111 108.504 122.211 109.394 122.452 110.067C122.928 111.412 123.094 112.109 122.942 112.999C122.863 113.448 122.69 113.931 122.438 114.576C122.304 114.9 122.152 115.277 121.966 115.687C121.776 116.091 121.565 116.563 121.317 117.091C121.21 117.333 121.093 117.564 120.972 117.785C120.841 118.006 120.706 118.223 120.568 118.433C120.282 118.858 119.982 119.265 119.668 119.638C119.347 120.007 119.002 120.359 118.671 120.676C118.502 120.838 118.329 120.994 118.157 121.138C117.991 121.29 117.812 121.418 117.639 121.549C116.28 122.608 114.989 123.16 114.403 123.257C114.151 123.574 113.94 123.909 113.878 124.244C113.799 124.64 113.471 125.224 113.04 125.789C112.602 126.355 112.081 126.938 111.643 127.363C111.063 127.728 110.511 128.084 109.983 128.415C110.193 127.949 110.79 126.6 111.218 126.176C111.415 125.976 111.967 125.569 112.56 125.044C113.15 124.513 113.751 123.854 114.058 123.202C113.395 122.65 112.905 121.998 112.54 121.301C112.188 120.6 111.96 119.852 111.825 119.11C111.701 118.365 111.674 117.626 111.722 116.94C111.736 116.764 111.756 116.601 111.777 116.432C111.798 116.267 111.825 116.108 111.86 115.946C111.922 115.628 112.001 115.332 112.095 115.059C112.188 114.78 112.336 114.452 112.502 114.062C112.667 113.665 112.861 113.231 113.081 112.761C113.192 112.53 113.312 112.296 113.423 112.044C113.537 111.795 113.654 111.54 113.778 111.285C114.016 110.764 114.275 110.253 114.524 109.725C114.768 109.197 115.034 108.693 115.279 108.19C115.524 107.689 115.769 107.217 116.007 106.792C116.256 106.361 116.473 105.961 116.701 105.626C116.925 105.292 117.146 105.022 117.353 104.822C117.591 104.581 117.95 104.153 118.343 103.646C118.743 103.146 119.161 102.545 119.585 102.01C119.982 101.458 120.354 100.955 120.665 100.62C120.737 100.537 120.806 100.465 120.872 100.399C120.938 100.337 121 100.289 121.051 100.258C121.158 100.182 121.238 100.168 121.293 100.227" fill="#FBC935"/>
<path d="M128.649 90.7387C128.825 90.8663 128.99 91.063 129.146 91.3079C129.304 91.5667 129.439 91.8669 129.577 92.2085C129.715 92.55 129.836 92.9399 129.956 93.3504C130.081 93.7645 130.212 94.2026 130.315 94.6546C130.422 95.1032 130.533 95.5655 130.643 96.0209C130.695 96.2555 130.757 96.4867 130.819 96.711C130.874 96.9387 130.933 97.163 130.988 97.3838C131.219 98.2498 131.502 99.0467 131.871 99.6333C132.061 99.9266 132.227 100.185 132.361 100.427C132.492 100.655 132.592 100.872 132.682 101.076C132.851 101.483 132.937 101.848 132.962 102.276C132.969 102.483 132.962 102.711 132.948 102.973C132.924 103.232 132.893 103.522 132.83 103.839C132.779 104.164 132.71 104.529 132.627 104.943C132.579 105.154 132.537 105.381 132.492 105.619C132.444 105.864 132.396 106.116 132.327 106.389C131.906 108.293 130.909 109.994 129.85 111.216C128.818 112.454 127.734 113.217 127.207 113.417C127.127 113.583 127.058 113.766 127.003 113.938C126.955 114.111 126.927 114.28 126.934 114.442C126.948 114.832 126.765 115.425 126.499 116.046C126.43 116.194 126.361 116.357 126.282 116.512C126.196 116.66 126.116 116.812 126.037 116.96C125.871 117.257 125.706 117.537 125.551 117.775C125.33 118.006 125.112 118.23 124.902 118.451C124.684 118.668 124.471 118.879 124.26 119.082C124.302 118.851 124.398 118.396 124.498 117.937C124.609 117.468 124.74 117.002 124.888 116.757C124.957 116.643 125.099 116.464 125.278 116.243C125.464 116.022 125.678 115.753 125.892 115.439C126.31 114.828 126.737 114.11 126.868 113.434C125.406 112.672 124.46 111.385 123.898 110.046C123.618 109.377 123.435 108.694 123.339 108.038C123.315 107.876 123.301 107.721 123.284 107.555C123.263 107.4 123.256 107.238 123.249 107.089C123.235 106.779 123.249 106.482 123.284 106.206C123.318 105.933 123.373 105.585 123.456 105.195C123.536 104.802 123.611 104.343 123.722 103.87C123.774 103.632 123.832 103.387 123.888 103.132C123.919 103.004 123.946 102.88 123.974 102.752C124.008 102.621 124.032 102.49 124.06 102.356C124.177 101.831 124.295 101.293 124.433 100.765C124.498 100.499 124.546 100.227 124.612 99.968C124.678 99.7058 124.74 99.4435 124.798 99.1986C124.929 98.6914 125.064 98.2084 125.181 97.7564C125.306 97.3113 125.444 96.9042 125.585 96.5557C125.723 96.2107 125.844 95.9071 125.996 95.6897C126.082 95.5551 126.189 95.3757 126.31 95.1583C126.361 95.0548 126.423 94.941 126.489 94.8133C126.555 94.696 126.617 94.565 126.675 94.4235C126.92 93.8818 127.2 93.2677 127.462 92.688C127.707 92.1118 127.945 91.577 128.152 91.2113C128.266 91.0319 128.345 90.887 128.438 90.8042C128.518 90.7214 128.587 90.6869 128.649 90.7387" fill="#FBC935"/>
<path d="M133.51 80.1083C133.89 80.2739 134.286 80.6913 134.7 81.2709C135.111 81.8506 135.567 82.5855 135.963 83.3687C136.177 83.762 136.388 84.1657 136.598 84.5659C136.819 84.9627 137.036 85.363 137.243 85.7391C137.657 86.4912 138.102 87.1709 138.592 87.6332C139.565 88.5682 139.972 89.0754 140.211 89.8483C140.324 90.245 140.397 90.697 140.462 91.3215C140.511 91.9391 140.538 92.7188 140.583 93.7711C140.597 94.0057 140.583 94.2232 140.569 94.4509C140.559 94.6821 140.538 94.9063 140.511 95.1306C140.455 95.5757 140.373 96.0104 140.273 96.4313C140.045 97.2663 139.724 98.0356 139.4 98.7188C139.055 99.3847 138.668 99.9471 138.327 100.382C138.154 100.599 137.989 100.785 137.84 100.93C137.688 101.079 137.554 101.193 137.437 101.258C137.357 101.607 137.33 101.962 137.416 102.259C137.474 102.438 137.488 102.673 137.481 102.945C137.474 103.211 137.436 103.522 137.378 103.832C137.257 104.446 137.064 105.109 136.884 105.616C136.812 105.747 136.736 105.875 136.664 105.995C136.584 106.123 136.505 106.24 136.429 106.364C136.27 106.606 136.122 106.841 135.977 107.072C135.96 106.623 135.891 105.316 136.039 104.798C136.122 104.567 136.408 104.029 136.678 103.39C136.819 103.073 136.919 102.711 137.009 102.362C137.092 102.014 137.136 101.665 137.129 101.338C135.591 100.903 134.428 99.9056 133.624 98.7809C132.803 97.6492 132.299 96.3795 132.185 95.3548C132.113 94.8373 132.061 94.0265 132.047 93.1156C132.047 93.0018 132.04 92.881 132.04 92.7706C132.04 92.6464 132.033 92.5291 132.027 92.4083C132.02 92.1599 132.013 91.908 132.006 91.6596C131.999 91.4078 131.992 91.1525 131.992 90.8937C131.985 90.6384 131.992 90.3865 131.971 90.1277C131.94 89.0961 131.964 88.0955 131.964 87.2226C131.971 86.7913 132.006 86.3911 132.054 86.053C132.092 85.6976 132.144 85.4043 132.227 85.1732C132.327 84.8972 132.444 84.4279 132.558 83.8828C132.658 83.3342 132.758 82.7166 132.872 82.1404C132.886 82.0611 132.893 81.9921 132.91 81.9231C132.924 81.8541 132.931 81.7816 132.944 81.7126C132.962 81.5711 132.982 81.4366 133.003 81.3089C133.051 81.0571 133.096 80.8294 133.144 80.6396C133.255 80.267 133.372 80.0462 133.51 80.1083" fill="#FBC935"/>
<path d="M135.515 68.6575C135.905 68.7334 136.395 69.0266 136.912 69.4717C137.423 69.9271 137.989 70.5206 138.579 71.1555C138.727 71.3176 138.872 71.4832 139.02 71.6454C139.172 71.811 139.317 71.9697 139.452 72.1353C139.745 72.4562 140.031 72.7839 140.324 73.0875C140.611 73.3843 140.904 73.6741 141.19 73.9191C141.342 74.0468 141.487 74.1606 141.629 74.2676C141.767 74.3711 141.908 74.4642 142.046 74.547C143.154 75.1991 143.664 75.5787 144.078 76.2411C144.182 76.4067 144.285 76.5895 144.378 76.8069C144.437 76.9139 144.482 77.0243 144.53 77.1519C144.579 77.2727 144.624 77.4004 144.675 77.5384C144.865 78.0973 145.089 78.8012 145.396 79.7534C145.641 80.5918 145.745 81.4509 145.772 82.2686C145.786 82.4722 145.772 82.6758 145.759 82.869C145.752 83.0691 145.734 83.2623 145.71 83.4521C145.669 83.835 145.6 84.2007 145.541 84.5492C145.507 84.7217 145.462 84.8874 145.424 85.0426C145.376 85.2083 145.327 85.3566 145.276 85.5049C145.176 85.7982 145.069 86.0673 144.968 86.2985C144.755 86.7746 144.544 87.1127 144.372 87.2956C144.392 87.6337 144.444 87.9581 144.596 88.2168C144.962 88.8241 145.041 90.4146 144.924 91.4083C144.762 91.9396 144.603 92.4537 144.461 92.9402C144.323 92.5365 143.916 91.3323 143.958 90.8355C144.013 90.387 144.454 88.6136 144.113 87.4371C143.35 87.3991 142.647 87.2059 142.001 86.9265C141.356 86.6366 140.763 86.2502 140.245 85.8224C139.724 85.3911 139.272 84.915 138.906 84.4285C138.727 84.187 138.565 83.942 138.427 83.7039C138.292 83.4624 138.182 83.2278 138.075 82.9966C137.875 82.5343 137.637 81.8132 137.399 80.9783C137.343 80.7713 137.268 80.5538 137.202 80.3296C137.123 80.1122 137.064 79.8845 136.988 79.6499C136.843 79.1945 136.722 78.7183 136.584 78.256C136.443 77.7868 136.298 77.3175 136.184 76.869C136.06 76.4239 135.963 75.9926 135.853 75.5924C135.753 75.1887 135.677 74.8161 135.632 74.4849C135.612 74.3193 135.598 74.164 135.591 74.026C135.591 73.8845 135.591 73.75 135.598 73.6396C135.611 73.3601 135.591 72.8944 135.56 72.37C135.539 72.1043 135.532 71.8248 135.508 71.5349C135.48 71.2451 135.446 70.9553 135.418 70.6689C135.36 70.1169 135.339 69.5856 135.339 69.2199C135.325 68.8576 135.38 68.6334 135.515 68.6575" fill="#FBC935"/>
<path d="M134.428 57.116C134.808 57.1022 135.325 57.2782 135.918 57.5783C136.219 57.7302 136.533 57.9061 136.871 58.1062C137.209 58.3064 137.53 58.5202 137.882 58.7548C139.286 59.6588 140.714 60.7318 141.922 61.0768C143.112 61.4253 143.664 61.66 144.216 62.1706C144.351 62.2948 144.489 62.4467 144.63 62.6192C144.71 62.7054 144.782 62.7985 144.858 62.8986C144.941 62.9952 145.01 63.1056 145.089 63.2161C145.41 63.6887 145.807 64.2787 146.324 65.0791C146.752 65.7933 147.097 66.5489 147.315 67.2907C147.518 68.0291 147.642 68.7571 147.691 69.4196C147.732 70.7445 147.553 71.7933 147.328 72.1901C147.425 72.5006 147.56 72.7869 147.763 72.9836C148.018 73.2251 148.25 73.6978 148.464 74.2292C148.557 74.4983 148.657 74.7812 148.729 75.0503C148.795 75.3263 148.857 75.592 148.898 75.8231C148.891 76.3441 148.878 76.8444 148.871 77.3206C148.636 76.9824 147.963 75.9784 147.863 75.5161C147.805 75.0917 147.739 73.3735 147.125 72.3798C145.703 72.6489 144.344 72.3247 143.178 71.7657C142.005 71.2068 141.028 70.4097 140.462 69.6472C140.39 69.5506 140.311 69.4403 140.231 69.3195C140.142 69.1987 140.045 69.0641 139.952 68.9227C139.752 68.6363 139.541 68.3086 139.324 67.9601C139.213 67.7773 139.1 67.5978 138.982 67.415C138.865 67.2286 138.741 67.0389 138.613 66.8457C138.368 66.4593 138.12 66.059 137.889 65.6691C137.637 65.2723 137.392 64.8791 137.157 64.4995C136.943 64.1166 136.729 63.7473 136.533 63.4023C136.136 62.7157 135.891 62.1154 135.787 61.6806C135.732 61.4288 135.604 61.0113 135.439 60.5318C135.273 60.0522 135.052 59.5139 134.873 59.0136C134.825 58.8825 134.783 58.7584 134.735 58.6376C134.687 58.5203 134.649 58.403 134.607 58.2926C134.521 58.0683 134.449 57.8647 134.407 57.6922C134.307 57.3438 134.3 57.1229 134.428 57.116" fill="#FBC935"/>
<path d="M130.191 45.6095C130.54 45.5232 131.067 45.5991 131.692 45.7751C132.306 45.958 133.031 46.234 133.79 46.5238C133.979 46.6031 134.169 46.6722 134.362 46.7481C134.545 46.8309 134.735 46.9068 134.928 46.9861C135.301 47.131 135.677 47.2794 136.053 47.4105C136.422 47.5451 136.784 47.6589 137.123 47.7452C137.461 47.8314 137.782 47.8866 138.075 47.9142C139.241 47.9867 139.814 48.0798 140.456 48.4421C140.783 48.6181 141.097 48.87 141.515 49.2253C141.722 49.4047 141.956 49.6118 142.222 49.8464C142.36 49.9671 142.501 50.0913 142.653 50.2259C142.805 50.3673 142.953 50.5157 143.126 50.6675C143.419 50.947 143.692 51.2403 143.937 51.5404C144.064 51.6888 144.182 51.8475 144.299 51.9959C144.416 52.1546 144.51 52.3133 144.603 52.4685C144.803 52.779 144.975 53.0964 145.131 53.4104C145.282 53.7209 145.417 54.0281 145.52 54.3213C145.717 54.9182 145.855 55.4633 145.928 55.9118C145.962 56.1327 145.976 56.3397 145.976 56.5053C145.976 56.6743 145.962 56.8124 145.934 56.9228C146.107 57.1781 146.317 57.4058 146.566 57.5403C146.707 57.6093 146.866 57.7474 147.028 57.913C147.118 57.9958 147.197 58.0924 147.28 58.189C147.363 58.2891 147.446 58.3926 147.525 58.4995C147.846 58.9377 148.15 59.4415 148.363 59.8382C148.515 60.3144 148.612 60.7767 148.736 61.2114C148.584 61.0803 148.291 60.8284 148.018 60.5627C147.739 60.2936 147.446 60.0073 147.335 59.8072C147.232 59.6243 147.066 59.1447 146.825 58.6168C146.759 58.4892 146.7 58.3512 146.624 58.2132C146.552 58.0821 146.466 57.9509 146.38 57.8233C146.207 57.5645 146.021 57.3264 145.8 57.1367C144.596 57.7129 143.261 57.7405 142.067 57.5059C141.76 57.4507 141.466 57.3678 141.183 57.2816C140.904 57.1919 140.625 57.0918 140.366 56.9814C139.841 56.7572 139.386 56.4915 139.02 56.2155C138.841 56.0706 138.627 55.8808 138.368 55.6634C138.116 55.4392 137.83 55.1873 137.53 54.9078C137.378 54.7698 137.23 54.6249 137.071 54.4731C136.988 54.4041 136.912 54.3282 136.829 54.2558C136.75 54.1799 136.671 54.1005 136.584 54.028C136.253 53.7175 135.918 53.4001 135.591 53.0792C135.266 52.7583 134.935 52.4409 134.621 52.1269C134.307 51.8199 134.014 51.5128 133.762 51.2265C133.217 50.6503 132.799 50.1327 132.613 49.7291C132.513 49.4944 132.258 49.1253 131.992 48.6974C131.851 48.487 131.699 48.2558 131.547 48.0316C131.399 47.8004 131.226 47.5727 131.078 47.345C130.764 46.8999 130.498 46.4755 130.322 46.1615C130.143 45.8475 130.074 45.6371 130.191 45.6095" fill="#FBC935"/>
<path d="M123.208 34.5831C123.508 34.452 124.015 34.4554 124.633 34.5279C124.943 34.5658 125.278 34.621 125.637 34.69C125.996 34.7625 126.361 34.8419 126.744 34.9247C127.493 35.0938 128.307 35.2697 129.039 35.4008C129.77 35.5319 130.457 35.6044 131.009 35.5389C132.106 35.4181 132.668 35.4008 133.324 35.6319C133.651 35.7458 134.007 35.9183 134.469 36.1702C134.7 36.3013 134.966 36.4428 135.259 36.6222C135.553 36.7947 135.884 36.9914 136.263 37.2191C136.591 37.4192 136.912 37.6401 137.216 37.8678C137.509 38.0955 137.775 38.3439 138.026 38.5957C138.534 39.0995 138.975 39.6101 139.293 40.1207C139.624 40.6279 139.876 41.1006 140.052 41.4939C140.224 41.8941 140.297 42.2185 140.31 42.4221C140.531 42.6153 140.776 42.7843 141.028 42.8533C141.176 42.8913 141.356 42.9775 141.549 43.0948C141.746 43.2121 141.949 43.364 142.146 43.5296C142.546 43.8573 142.953 44.2507 143.247 44.5646C143.371 44.7682 143.492 44.9579 143.609 45.1512C143.719 45.3478 143.826 45.5376 143.937 45.717C143.771 45.6377 143.443 45.472 143.119 45.296C142.781 45.1201 142.453 44.9166 142.305 44.7648C142.167 44.613 141.894 44.2162 141.542 43.7814C141.183 43.3536 140.721 42.905 140.238 42.6428C139.286 43.426 138.082 43.7297 136.919 43.7607C135.767 43.7814 134.628 43.5433 133.821 43.1604C133.61 43.0638 133.358 42.9258 133.079 42.7671C132.792 42.6084 132.465 42.422 132.123 42.2185C131.775 42.0114 131.412 41.7838 131.043 41.556C130.667 41.3214 130.267 41.0799 129.891 40.8384C129.501 40.5969 129.139 40.3416 128.776 40.1001C128.411 39.8585 128.059 39.617 127.748 39.3858C127.134 38.9201 126.616 38.5025 126.347 38.1472C126.189 37.9436 125.899 37.6228 125.544 37.2571C125.188 36.8982 124.771 36.4945 124.398 36.1047C124.301 36.0115 124.212 35.9183 124.125 35.8252C124.032 35.732 123.939 35.6492 123.86 35.556C123.694 35.3904 123.542 35.2318 123.435 35.1007C123.201 34.8212 123.101 34.628 123.208 34.5831" fill="#FBC935"/>
<path d="M114.023 24.3906C114.548 24.0835 115.9 24.1663 117.387 24.2871C118.85 24.4182 120.465 24.57 121.455 24.3147C122.452 24.0525 122.963 23.9627 123.611 24.0835C124.274 24.1939 125.04 24.5285 126.616 25.1254C127.986 25.674 129.139 26.5193 129.936 27.3474C130.757 28.1513 131.226 28.9242 131.326 29.2899C131.561 29.4348 131.826 29.5452 132.075 29.5659C132.668 29.6039 133.783 30.2801 134.455 30.7528C134.607 30.9115 134.762 31.0737 134.907 31.222C135.052 31.3808 135.194 31.5325 135.332 31.6843C135.159 31.6464 134.825 31.5498 134.49 31.4394C134.148 31.3393 133.807 31.2151 133.638 31.0978C133.324 30.8839 132.306 29.8177 131.312 29.5141C130.595 30.3939 129.542 30.8735 128.48 31.0909C127.952 31.1979 127.414 31.2359 126.906 31.222C126.403 31.2013 125.909 31.1392 125.495 31.0219C125.071 30.9081 124.46 30.6769 123.736 30.3939C123.004 30.1076 122.197 29.7694 121.393 29.4175C120.575 29.0725 119.788 28.6964 119.123 28.3411C118.443 28.003 117.891 27.6613 117.584 27.3612C117.401 27.1818 117.059 26.9299 116.666 26.6332C116.269 26.3365 115.821 26.0018 115.396 25.6879C114.544 25.0668 113.837 24.5044 114.023 24.3906" fill="#FBC935"/>
<path d="M103.158 15.2514C103.604 14.9132 104.87 14.858 106.271 14.8028C107.654 14.7649 109.165 14.7442 110.052 14.3784C110.939 14.0231 111.394 13.8885 112.008 13.923C112.626 13.954 113.406 14.1542 114.931 14.5371C116.287 14.858 117.456 15.5135 118.336 16.1518C119.202 16.797 119.761 17.4319 119.913 17.7528C120.165 17.8528 120.42 17.9218 120.651 17.9046C121.189 17.8735 122.328 18.322 123.028 18.6636C123.366 18.9189 123.68 19.1639 123.981 19.3951C123.66 19.364 122.69 19.2605 122.335 19.0949C122.017 18.9465 120.893 18.1184 119.934 17.9597C119.423 18.8637 118.543 19.4503 117.591 19.7918C116.645 20.1334 115.628 20.2265 114.824 20.1092C114.41 20.0506 113.792 19.923 113.081 19.7505C112.726 19.6608 112.343 19.5538 111.95 19.4503C111.56 19.3467 111.149 19.2398 110.746 19.1225C110.345 19.0052 109.949 18.8844 109.566 18.7533C109.186 18.6291 108.807 18.5083 108.468 18.3876C107.785 18.1391 107.237 17.8735 106.899 17.6423C106.698 17.5009 106.346 17.2904 105.926 17.0593C105.518 16.8212 105.056 16.5589 104.614 16.3174C103.738 15.8275 103.003 15.3756 103.158 15.2514" fill="#FBC935"/>
<path d="M96.6962 0.128732C96.8446 0.0631772 97.0205 0.025191 97.2414 0.00793981C97.4587 -0.00931133 97.7071 0.00450643 97.9797 0.0252078C98.2591 0.0493594 98.5593 0.0873423 98.8768 0.142546C99.0355 0.170148 99.1976 0.194296 99.3701 0.225348C99.5357 0.25985 99.6979 0.290916 99.8704 0.325418C100.55 0.470328 101.275 0.622128 101.937 0.746336C102.6 0.863644 103.238 0.932625 103.738 0.894672C104.756 0.804966 105.26 0.808464 105.867 1.02928C106.16 1.14314 106.474 1.31904 106.892 1.5709C107.095 1.70201 107.337 1.84349 107.596 2.016C107.854 2.19541 108.147 2.39207 108.482 2.61633C108.627 2.71984 108.775 2.8165 108.907 2.93036C109.041 3.04077 109.179 3.15116 109.3 3.26502C109.559 3.49964 109.8 3.73765 110.011 3.98952C110.225 4.24139 110.411 4.48986 110.583 4.74173C110.67 4.86939 110.763 4.99354 110.835 5.11775C110.911 5.23851 110.977 5.36964 111.049 5.4904C111.581 6.46337 111.77 7.31898 111.756 7.6847C111.943 7.88826 112.139 8.06426 112.367 8.15052C112.633 8.25747 112.985 8.54389 113.326 8.88546C113.654 9.23738 113.982 9.63757 114.216 9.96534C114.379 10.3656 114.544 10.7486 114.696 11.1108C114.403 10.9211 113.557 10.3587 113.319 10.0378C113.212 9.89287 113.005 9.49607 112.733 9.06134C112.453 8.63351 112.081 8.17121 111.67 7.88829C111.184 8.20572 110.652 8.4024 110.111 8.51281C109.572 8.63011 109.013 8.65429 108.482 8.62324C107.934 8.59219 107.416 8.49557 106.95 8.35756C106.83 8.32651 106.712 8.29545 106.605 8.25749C106.491 8.21609 106.378 8.17811 106.277 8.14015C106.06 8.05045 105.867 7.96072 105.691 7.86067C105.512 7.76061 105.301 7.62608 105.056 7.46392C104.801 7.30866 104.521 7.12233 104.235 6.92567C104.087 6.82216 103.935 6.72214 103.776 6.61518C103.621 6.50822 103.466 6.39783 103.303 6.28743C102.972 6.06661 102.658 5.83201 102.324 5.60774C101.992 5.38003 101.678 5.14534 101.368 4.92797C101.054 4.70026 100.754 4.48983 100.495 4.27937C100.236 4.06545 99.9843 3.87571 99.7876 3.69285C99.5909 3.50998 99.4323 3.33058 99.3219 3.17876C99.1908 3.0028 98.9388 2.71989 98.6525 2.40937C98.3592 2.0954 98.0004 1.75034 97.6934 1.42257C97.369 1.09825 97.0619 0.798079 96.8791 0.563464C96.8308 0.50826 96.7893 0.453067 96.7548 0.401313C96.7203 0.34956 96.6962 0.31157 96.6824 0.277068C96.6479 0.197713 96.6479 0.149433 96.6962 0.128732" fill="#FBC935"/>
</svg>
