<svg width="31" height="29" viewBox="0 0 31 29" fill="none" xmlns="http://www.w3.org/2000/svg">
<path fill-rule="evenodd" clip-rule="evenodd" d="M0 12.6711V25.793C0 26.5564 0.303277 27.2886 0.843114 27.8284C1.38295 28.3683 2.11513 28.6715 2.87857 28.6715H28.1214C28.8849 28.6715 29.617 28.3683 30.1569 27.8284C30.6967 27.2886 31 26.5564 31 25.793V12.6711C30.9996 12.2252 30.8955 11.7854 30.6961 11.3865C30.4967 10.9877 30.2073 10.6406 29.8508 10.3727L17.2271 0.90218C16.7293 0.529524 16.1241 0.328125 15.5022 0.328125C14.8803 0.328125 14.2752 0.529524 13.7773 0.90218L1.14921 10.3727C0.792712 10.6406 0.503332 10.9877 0.303898 11.3865C0.104463 11.7854 0.000428694 12.2252 0 12.6711H0ZM15.5 18.0164L6.45907 11.234L13.7773 5.74704C14.2752 5.37438 14.8803 5.17298 15.5022 5.17298C16.1241 5.17298 16.7293 5.37438 17.2271 5.74704L24.5343 11.234L15.5 18.0164Z" fill="#444A58"/>
</svg>
