<svg width="35" height="35" viewBox="0 0 35 35" fill="none" xmlns="http://www.w3.org/2000/svg">
<path fill-rule="evenodd" clip-rule="evenodd" d="M31.6204 15L34.1443 13.67C34.333 13.573 34.4999 13.4401 34.6353 13.2793C34.7707 13.1184 34.8719 12.9328 34.933 12.7333C34.994 12.5337 35.0136 12.3243 34.9907 12.1173C34.9678 11.9102 34.9029 11.7097 34.7996 11.5275L32.0479 6.67251C31.8369 6.30246 31.4848 6.02871 31.0683 5.91074C30.6518 5.79277 30.2044 5.84013 29.8234 6.04251L27.2918 7.38001C26.8538 7.57032 26.3746 7.65232 25.8964 7.61874C25.4183 7.58517 24.956 7.43706 24.5503 7.18751C24.2048 6.97001 23.8515 6.77001 23.4983 6.58501C23.0762 6.36671 22.7175 6.04786 22.4552 5.65803C22.193 5.26819 22.0358 4.82 21.9983 4.35501V1.58252C21.9976 1.37383 21.9548 1.16732 21.8723 0.974807C21.7899 0.78229 21.6693 0.607542 21.5177 0.46056C21.366 0.313579 21.1861 0.197248 20.9883 0.118223C20.7906 0.0391987 20.5788 -0.00096919 20.3651 1.77551e-05H14.6262C14.1953 -0.000648608 13.7817 0.165546 13.476 0.46218C13.1704 0.758814 12.9976 1.16169 12.9956 1.58252V4.36502C12.9575 4.82857 12.8003 5.27525 12.5386 5.66373C12.2768 6.05221 11.919 6.36994 11.4981 6.58751C11.2166 6.73501 10.935 6.89251 10.6611 7.06001C10.2493 7.30131 9.78286 7.43945 9.30321 7.46213C8.82357 7.48481 8.34562 7.39133 7.91191 7.19001L5.97417 6.12251C5.59872 5.91265 5.15377 5.85558 4.73557 5.96366C4.31737 6.07173 3.95954 6.33626 3.7395 6.70001L0.877694 11.5C0.770587 11.6797 0.701279 11.8785 0.673831 12.0847C0.646383 12.2908 0.661348 12.5003 0.717848 12.7008C0.774348 12.9012 0.871247 13.0887 1.00287 13.2521C1.13449 13.4155 1.29818 13.5517 1.48436 13.6525L3.41953 14.73C3.81705 14.9851 4.14134 15.335 4.36173 15.7467C4.58211 16.1583 4.69129 16.6181 4.67893 17.0825C4.67893 17.285 4.67893 17.4775 4.67893 17.6775C4.67811 18.1416 4.55703 18.598 4.32697 19.004C4.09692 19.4101 3.76537 19.7528 3.36322 20L0.854656 21.335C0.665965 21.432 0.499032 21.5649 0.363672 21.7258C0.228312 21.8867 0.127255 22.0724 0.0664414 22.272C0.0056281 22.4716 -0.0137143 22.6811 0.00955108 22.8881C0.0328165 23.0951 0.0982203 23.2955 0.201918 23.4775L2.9383 28.325C3.14931 28.695 3.50133 28.9688 3.91786 29.0868C4.33438 29.2047 4.78175 29.1574 5.16273 28.955L7.70457 27.6175C8.14036 27.4254 8.61828 27.3424 9.09515 27.3761C9.57202 27.4097 10.0328 27.5588 10.4358 27.81C10.7814 28.0275 11.1346 28.23 11.4981 28.4125C11.9189 28.632 12.2766 28.9512 12.5382 29.3409C12.7999 29.7305 12.9571 30.1781 12.9956 30.6425V33.4175C12.9983 33.8385 13.1716 34.2414 13.4777 34.538C13.7837 34.8345 14.1976 35.0007 14.6287 35H20.3651C20.7967 35.0013 21.2112 34.8355 21.5178 34.5389C21.8244 34.2422 21.9981 33.839 22.0008 33.4175V30.6325C22.036 30.1685 22.1921 29.721 22.4542 29.3325C22.7163 28.9439 23.0757 28.6272 23.4983 28.4125C23.7799 28.2625 24.0589 28.105 24.3328 27.94C24.745 27.6987 25.2119 27.5606 25.6919 27.5379C26.172 27.5152 26.6503 27.6087 27.0845 27.81L29.0171 28.875C29.3922 29.0847 29.8367 29.1417 30.2545 29.0336C30.6723 28.9256 31.0297 28.6611 31.2492 28.2975L34.1085 23.5C34.2151 23.3201 34.284 23.1212 34.3111 22.915C34.3382 22.7088 34.3229 22.4993 34.2662 22.2989C34.2095 22.0985 34.1124 21.9112 33.9808 21.7478C33.8491 21.5845 33.6854 21.4484 33.4993 21.3475L31.559 20.2725C31.1654 20.0132 30.8445 19.662 30.6254 19.2507C30.4063 18.8393 30.2961 18.3811 30.3047 17.9175C30.3047 17.7175 30.3047 17.5175 30.3047 17.315C30.3068 16.8522 30.4285 16.3974 30.6585 15.9927C30.8885 15.588 31.2193 15.2466 31.6204 15ZM17.4931 23.66C16.249 23.6427 15.0379 23.2666 14.012 22.579C12.9862 21.8913 12.1914 20.9228 11.7276 19.7952C11.2638 18.6676 11.1517 17.4313 11.4054 16.2416C11.6591 15.052 12.2673 13.9621 13.1534 13.1091C14.0396 12.2561 15.1642 11.678 16.3858 11.4475C17.6075 11.217 18.8716 11.3444 20.0193 11.8137C21.1671 12.2829 22.1471 13.0731 22.8362 14.0849C23.5254 15.0967 23.8929 16.2848 23.8925 17.5C23.8878 18.3152 23.7184 19.1216 23.394 19.8727C23.0696 20.6239 22.5966 21.3052 22.0021 21.8774C21.4076 22.4497 20.7033 22.9017 19.9295 23.2076C19.1558 23.5135 18.3278 23.6672 17.4931 23.66Z" fill="#616161"/>
</svg>
