<svg width="35" height="39" viewBox="0 0 35 39" fill="none" xmlns="http://www.w3.org/2000/svg">
<path d="M0 33.2865V30.4841C0.0530441 29.4631 0.389932 28.4758 0.974238 27.6288C1.55854 26.7819 2.36804 26.1075 3.31519 25.6787C12.4183 22.0962 22.5817 22.0962 31.6848 25.6787C32.632 26.1075 33.4415 26.7819 34.0258 27.6288C34.6101 28.4758 34.947 29.4631 35 30.4841V33.2865C34.9996 34.0376 34.8482 34.7813 34.5543 35.4751C34.2604 36.1689 33.8298 36.7991 33.2872 37.3297C32.7445 37.8603 32.1005 38.2809 31.3918 38.5675C30.6832 38.8541 29.9238 39.0011 29.1572 39H5.84281C5.07616 39.0011 4.31681 38.8541 3.60817 38.5675C2.89952 38.2809 2.25547 37.8603 1.71284 37.3297C1.17021 36.7991 0.73964 36.1689 0.445739 35.4751C0.151839 34.7813 0.000372791 34.0376 0 33.2865ZM17.5 4.07456e-07C15.5767 -0.000550589 13.6964 0.557738 12.097 1.60426C10.4975 2.65078 9.25076 4.13852 8.51435 5.87933C7.77795 7.62014 7.58498 9.53582 7.95985 11.3841C8.33472 13.2324 9.2606 14.9302 10.6204 16.2629C11.9802 17.5955 13.7128 18.5032 15.5991 18.871C17.4854 19.2388 19.4407 19.0503 21.2176 18.3293C22.9946 17.6083 24.5134 16.3872 25.582 14.8204C26.6506 13.2536 27.221 11.4116 27.221 9.52714C27.2213 8.27615 26.9702 7.03734 26.4818 5.88147C25.9935 4.7256 25.2775 3.67532 24.3748 2.7906C23.472 1.90589 22.4003 1.20408 21.2207 0.725265C20.0411 0.246447 18.7768 3.53948e-07 17.5 4.07456e-07Z" fill="#616161"/>
</svg>
