<svg width="28" height="28" viewBox="0 0 28 28" fill="none" xmlns="http://www.w3.org/2000/svg">
<path d="M27.1772 24.9988C27.1772 24.9988 20.8228 34.0659 7.44446 20.6805C-6.01164 7.19946 3.13915 0.932206 3.13915 0.932206C3.42575 0.644557 3.77094 0.421984 4.15126 0.279623C4.53157 0.137262 4.93809 0.0784519 5.34317 0.107191C5.74825 0.13593 6.14239 0.251544 6.49879 0.446172C6.85519 0.6408 7.16549 0.909877 7.40859 1.23511L9.9838 4.68458C10.3931 5.23077 10.5918 5.90614 10.5435 6.5869C10.4951 7.26766 10.203 7.9082 9.7207 8.39113L7.45244 10.6629C7.45244 10.6629 7.45244 12.6676 11.4588 16.679C15.4651 20.6905 17.4683 20.6905 17.4683 20.6905L19.7365 18.4187C20.2185 17.936 20.8586 17.6436 21.5391 17.5953C22.2195 17.547 22.8945 17.746 23.4399 18.1557L26.8722 20.7343C27.1953 20.9784 27.4625 21.2888 27.6558 21.6446C27.849 22.0005 27.964 22.3935 27.9929 22.7974C28.0218 23.2013 27.9639 23.6066 27.8232 23.9863C27.6825 24.366 27.4623 24.7113 27.1772 24.9988V24.9988Z" fill="#444A58"/>
</svg>
