<svg width="102" height="66" viewBox="0 0 102 66" fill="none" xmlns="http://www.w3.org/2000/svg">
<path d="M13.7541 54.4748H5.63597L4.29268 58.3554H0L7.32968 37.9602H12.0896L19.4193 58.3554H15.0974L13.7541 54.4748ZM12.6444 51.2069L9.69503 42.687L6.74564 51.2069H12.6444Z" fill="#212121"/>
<path d="M24.2323 40.2653C23.512 40.2653 22.9085 40.0416 22.4218 39.5942C21.9546 39.1273 21.721 38.5535 21.721 37.8727C21.721 37.1919 21.9546 36.6278 22.4218 36.1804C22.9085 35.7135 23.512 35.4801 24.2323 35.4801C24.9527 35.4801 25.5464 35.7135 26.0137 36.1804C26.5004 36.6278 26.7437 37.1919 26.7437 37.8727C26.7437 38.5535 26.5004 39.1273 26.0137 39.5942C25.5464 40.0416 24.9527 40.2653 24.2323 40.2653ZM26.2473 42.191V58.3554H22.159V42.191H26.2473Z" fill="#212121"/>
<path d="M34.3748 44.7003C34.9004 43.8444 35.5818 43.1733 36.4189 42.687C37.2755 42.2007 38.2489 41.9576 39.3391 41.9576V46.2467H38.2586C36.9737 46.2467 36.0003 46.5482 35.3384 47.1512C34.696 47.7542 34.3748 48.8046 34.3748 50.3024V58.3554H30.2865V42.191H34.3748V44.7003Z" fill="#212121"/>
<path d="M64.5198 42.191L59.7891 58.3554H55.3796L52.4302 47.0637L49.4808 58.3554H45.0421L40.2822 42.191H44.4289L47.2907 54.504L50.3861 42.191H54.708L57.745 54.4748L60.6067 42.191H64.5198Z" fill="#212121"/>
<path d="M65.6806 50.2149C65.6806 48.5809 66.0018 47.1317 66.6442 45.8674C67.3061 44.603 68.1919 43.6304 69.3016 42.9496C70.4308 42.2688 71.6864 41.9284 73.0687 41.9284C74.2757 41.9284 75.3269 42.1715 76.2225 42.6578C77.1375 43.1441 77.8675 43.7569 78.4126 44.496V42.191H82.5301V58.3554H78.4126V55.992C77.887 56.7507 77.1569 57.3829 76.2225 57.8886C75.3075 58.3749 74.2465 58.618 73.0395 58.618C71.6767 58.618 70.4308 58.2679 69.3016 57.5676C68.1919 56.8674 67.3061 55.8851 66.6442 54.6207C66.0018 53.3369 65.6806 51.8683 65.6806 50.2149ZM78.4126 50.2732C78.4126 49.2812 78.2179 48.435 77.8286 47.7347C77.4392 47.015 76.9136 46.4704 76.2517 46.1008C75.5898 45.7118 74.8792 45.5172 74.1199 45.5172C73.3607 45.5172 72.6598 45.702 72.0174 46.0716C71.3749 46.4412 70.8493 46.9859 70.4405 47.7056C70.0511 48.4058 69.8564 49.2423 69.8564 50.2149C69.8564 51.1874 70.0511 52.0433 70.4405 52.7825C70.8493 53.5022 71.3749 54.0566 72.0174 54.4456C72.6793 54.8347 73.3801 55.0292 74.1199 55.0292C74.8792 55.0292 75.5898 54.8444 76.2517 54.4748C76.9136 54.0858 77.4392 53.5411 77.8286 52.8409C78.2179 52.1211 78.4126 51.2653 78.4126 50.2732Z" fill="#212121"/>
<path d="M102 42.191L91.9837 66H87.6327L91.1369 57.947L84.6541 42.191H89.2388L93.4146 53.4828L97.6489 42.191H102Z" fill="#212121"/>
<path d="M41.7756 7.86893C37.9307 5.8229 39.3858 0 43.742 0C44.4304 0 45.1081 0.169728 45.7151 0.494131L61.1898 8.76465C66.3326 11.5133 66.3326 18.8802 61.1898 21.6288L45.7151 29.8993C45.1081 30.2237 44.4304 30.3935 43.742 30.3935C39.3858 30.3935 37.9307 24.5706 41.7756 22.5245L46.4308 20.0473C50.3171 17.9793 50.3171 12.4142 46.4308 10.3462L41.7756 7.86893Z" fill="#212121"/>
</svg>
