<svg width="31" height="28" viewBox="0 0 31 28" fill="none" xmlns="http://www.w3.org/2000/svg">
<path d="M8.80293 26.5609L1.11276 17.2099C0.75999 16.7815 0.480142 16.2727 0.289208 15.7127C0.0982752 15.1527 0 14.5524 0 13.9463C0 13.3401 0.0982752 12.7398 0.289208 12.1798C0.480142 11.6198 0.75999 11.111 1.11276 10.6826C1.82518 9.81782 2.79079 9.33212 3.79756 9.33212C4.80433 9.33212 5.76995 9.81782 6.48237 10.6826L11.2984 16.5316C11.3955 16.649 11.5269 16.7149 11.6638 16.7149C11.8007 16.7149 11.932 16.649 12.0291 16.5316L24.5176 1.35045C25.23 0.485704 26.1957 0 27.2024 0C28.2092 0 29.1748 0.485704 29.8872 1.35045C30.24 1.77891 30.5199 2.28768 30.7108 2.84769C30.9017 3.40769 31 4.00794 31 4.61414C31 5.22033 30.9017 5.82058 30.7108 6.38059C30.5199 6.94059 30.24 7.44936 29.8872 7.87782L14.5202 26.5609C13.762 27.4824 12.7337 28 11.6616 28C10.5894 28 9.56116 27.4824 8.80293 26.5609Z" fill="#6FCB4F"/>
</svg>
