<svg width="27" height="25" viewBox="0 0 27 25" fill="none" xmlns="http://www.w3.org/2000/svg">
<path d="M26.6667 12.5043C26.6662 12.2857 26.6032 12.0718 26.4851 11.8878C26.3671 11.7037 26.1989 11.5572 26.0003 11.4653L1.62088 0.101114C1.40821 0.00552034 1.17146 -0.0231857 0.942072 0.0188091C0.712684 0.060804 0.501514 0.171512 0.33661 0.336229C0.171706 0.500946 0.060873 0.711878 0.0188306 0.941006C-0.0232118 1.17014 0.00552598 1.40662 0.101228 1.61905L4.78208 12.5287L0.101228 23.4383C0.0124473 23.6441 -0.0140834 23.8714 0.0249062 24.0921C0.0638958 24.3128 0.166701 24.5172 0.320643 24.6802C0.488235 24.8409 0.700638 24.9471 0.929851 24.9848C1.15907 25.0224 1.39433 24.9899 1.60463 24.8913L25.984 13.5271C26.1832 13.4388 26.3531 13.2958 26.474 13.1147C26.5948 12.9336 26.6616 12.7219 26.6667 12.5043ZM3.4087 21.5957L6.82995 13.6489L14.6151 13.6489V11.3598L6.76494 11.3598L3.4087 3.41297L22.7985 12.5043L3.4087 21.5957Z" fill="#828282"/>
</svg>
